<svg width="1280" height="234" viewBox="0 0 1280 234" fill="none" xmlns="http://www.w3.org/2000/svg">
<g opacity="0.6">
<path d="M603.758 258.905L603 258.719C611.45 217.712 632.687 180.474 662.798 153.865C685.563 133.778 712.638 120.344 741.474 114.828C770.311 109.311 799.959 111.894 827.628 122.332C855.297 132.77 880.077 150.721 899.633 174.493C919.189 198.266 932.879 227.079 939.414 258.219L938.657 258.406C920.769 172.702 851.932 112.845 771.259 112.845C691.643 112.845 621.199 174.272 603.758 258.905Z" fill="#BFBBFA"/>
<path d="M875.307 197.097C886.948 197.097 896.385 186.771 896.385 174.034C896.385 161.296 886.948 150.97 875.307 150.97C863.666 150.97 854.229 161.296 854.229 174.034C854.229 186.771 863.666 197.097 875.307 197.097Z" fill="#E7E6FF"/>
<path opacity="0.4" d="M720.665 199.103C727.35 199.103 732.769 193.267 732.769 186.067C732.769 178.868 727.35 173.031 720.665 173.031C713.98 173.031 708.561 178.868 708.561 186.067C708.561 193.267 713.98 199.103 720.665 199.103Z" fill="#6C63FF" fill-opacity="0.4"/>
<path opacity="0.4" d="M698.126 201.61C702.736 201.61 706.474 197.457 706.474 192.334C706.474 187.211 702.736 183.059 698.126 183.059C693.516 183.059 689.778 187.211 689.778 192.334C689.778 197.457 693.516 201.61 698.126 201.61Z" fill="#6C63FF" fill-opacity="0.4"/>
</g>
<g opacity="0.6">
<path d="M-26.4051 192.023L-27.1629 191.837C-18.7125 150.83 2.52417 113.592 32.635 86.9824C55.3998 66.896 82.4751 53.4621 111.311 47.9456C140.148 42.4291 169.796 45.0116 197.465 55.4498C225.134 65.888 249.914 83.8386 269.47 107.611C289.027 131.384 302.716 160.197 309.251 191.336L308.494 191.524C290.606 105.82 221.769 45.9631 141.096 45.9631C61.48 45.9631 -8.96441 107.39 -26.4051 192.023Z" fill="#BFBBFA"/>
<path d="M221.416 67.8319C228.908 71.7338 235.429 73.4379 235.981 71.6379C236.533 69.838 230.907 65.2158 223.415 61.3138C215.923 57.4119 209.402 55.7079 208.85 57.5078C208.298 59.3077 213.924 63.93 221.416 67.8319Z" fill="#6C63FF" fill-opacity="0.4"/>
<path d="M245.144 130.215C256.785 130.215 266.222 119.889 266.222 107.152C266.222 94.4138 256.785 84.0879 245.144 84.0879C233.503 84.0879 224.066 94.4138 224.066 107.152C224.066 119.889 233.503 130.215 245.144 130.215Z" fill="#E7E6FF"/>
<path d="M237.005 199.406H236.17V232.999H237.005V199.406Z" fill="#E7E6FF"/>
<path d="M327.005 199.406H326.17V232.999H327.005V199.406Z" fill="#E7E6FF"/>
<path d="M244.1 203.88C244.149 215.787 236.676 225.478 236.676 225.478C236.676 225.478 229.124 215.864 229.075 203.957C229.026 192.05 236.499 182.359 236.499 182.359C236.499 182.359 244.051 191.973 244.1 203.88Z" fill="#6C63FF" fill-opacity="0.4"/>
<path opacity="0.1" d="M244.1 203.88C244.149 215.787 236.676 225.478 236.676 225.478C236.676 225.478 229.124 215.864 229.075 203.957C229.026 192.05 236.499 182.359 236.499 182.359C236.499 182.359 244.051 191.973 244.1 203.88Z" fill="black"/>
<path opacity="0.1" d="M334.1 203.88C334.149 215.787 326.676 225.478 326.676 225.478C326.676 225.478 319.124 215.864 319.075 203.957C319.026 192.05 326.499 182.359 326.499 182.359C326.499 182.359 334.051 191.973 334.1 203.88Z" fill="black"/>
<path opacity="0.4" d="M90.5022 132.221C97.1872 132.221 102.606 126.385 102.606 119.185C102.606 111.985 97.1872 106.149 90.5022 106.149C83.8172 106.149 78.3979 111.985 78.3979 119.185C78.3979 126.385 83.8172 132.221 90.5022 132.221Z" fill="#6C63FF" fill-opacity="0.4"/>
<path opacity="0.4" d="M67.963 134.728C72.5734 134.728 76.3108 130.575 76.3108 125.452C76.3108 120.329 72.5734 116.176 67.963 116.176C63.3527 116.176 59.6153 120.329 59.6153 125.452C59.6153 130.575 63.3527 134.728 67.963 134.728Z" fill="#6C63FF" fill-opacity="0.4"/>
<path opacity="0.4" d="M228.24 131.719C234.925 131.719 240.344 125.659 240.344 118.182C240.344 110.706 234.925 104.645 228.24 104.645C221.555 104.645 216.135 110.706 216.135 118.182C216.135 125.659 221.555 131.719 228.24 131.719Z" fill="#6C63FF" fill-opacity="0.4"/>
<path d="M155.392 229.465C156.036 231.957 158.242 233.5 158.242 233.5C158.242 233.5 159.403 231.003 158.759 228.511C158.115 226.019 155.909 224.475 155.909 224.475C155.909 224.475 154.748 226.972 155.392 229.465Z" fill="#E7E6FF"/>
<path d="M483.916 230.081C484.56 232.573 486.765 234.116 486.765 234.116C486.765 234.116 487.927 231.619 487.283 229.127C486.639 226.635 484.433 225.091 484.433 225.091C484.433 225.091 483.272 227.589 483.916 230.081Z" fill="#E7E6FF"/>
<path d="M569.916 230.081C570.56 232.573 572.765 234.116 572.765 234.116C572.765 234.116 573.927 231.619 573.283 229.127C572.639 226.635 570.433 225.091 570.433 225.091C570.433 225.091 569.272 227.589 569.916 230.081Z" fill="#E7E6FF"/>
<path d="M156.467 228.582C158.311 230.52 158.536 233.5 158.536 233.5C158.536 233.5 155.772 233.337 153.928 231.399C152.083 229.46 151.858 226.481 151.858 226.481C151.858 226.481 154.623 226.644 156.467 228.582Z" fill="#6C63FF" fill-opacity="0.4"/>
<path d="M484.991 229.198C486.835 231.137 487.06 234.116 487.06 234.116C487.06 234.116 484.296 233.953 482.451 232.015C480.607 230.077 480.382 227.097 480.382 227.097C480.382 227.097 483.147 227.26 484.991 229.198Z" fill="#6C63FF" fill-opacity="0.4"/>
<path d="M570.991 229.198C572.835 231.137 573.06 234.116 573.06 234.116C573.06 234.116 570.296 233.953 568.451 232.015C566.607 230.077 566.382 227.097 566.382 227.097C566.382 227.097 569.147 227.26 570.991 229.198Z" fill="#6C63FF" fill-opacity="0.4"/>
<path d="M77.0915 209.409L75.4763 206.474L90.5522 192.387H129.319V196.495L115.32 212.931L99.167 216.453L77.0915 209.409Z" fill="#E7E6FF"/>
<path d="M405.615 210.025L404 207.091L419.076 193.003H457.843V197.112L443.844 213.548L427.691 217.069L405.615 210.025Z" fill="#E7E6FF"/>
<path d="M491.615 210.025L490 207.091L505.076 193.003H543.843V197.112L529.844 213.548L513.691 217.069L491.615 210.025Z" fill="#E7E6FF"/>
<path d="M135.903 200.592V191.384H130.896V194.287L129.32 192.303L116.57 206.428L114.445 208.782L111.789 220.553L116.57 233.5H141.006V207.016L135.903 200.592Z" fill="#E7E6FF"/>
<path d="M464.427 201.208V192H459.42V194.904L457.843 192.919L445.094 207.044L442.969 209.398L440.313 221.169L445.094 234.116H469.53V207.633L464.427 201.208Z" fill="#E7E6FF"/>
<path d="M550.427 201.208V192H545.42V194.904L543.843 192.919L531.094 207.044L528.969 209.398L526.313 221.169L531.094 234.116H555.53V207.633L550.427 201.208Z" fill="#E7E6FF"/>
<path d="M116.38 206.425H75.4762V233.5H116.38V206.425Z" fill="#6C63FF" fill-opacity="0.4"/>
<path d="M444.904 207.042H404V234.116H444.904V207.042Z" fill="#6C63FF" fill-opacity="0.4"/>
<path d="M530.904 207.042H490V234.116H530.904V207.042Z" fill="#6C63FF" fill-opacity="0.4"/>
<path d="M110.537 214.949H102.189V223.472H110.537V214.949Z" fill="#E7E6FF"/>
<path d="M439.061 215.565H430.713V224.089H439.061V215.565Z" fill="#E7E6FF"/>
<path d="M525.061 215.565H516.713V224.089H525.061V215.565Z" fill="#E7E6FF"/>
<path d="M98.8501 214.448H91.3371V233.5H98.8501V214.448Z" fill="#E7E6FF"/>
<path d="M427.374 215.064H419.861V234.117H427.374V215.064Z" fill="#E7E6FF"/>
<path d="M513.374 215.064H505.861V234.117H513.374V215.064Z" fill="#E7E6FF"/>
<path d="M82.9896 217.456V214.448H79.2331V217.456H82.6763H82.9896Z" fill="#E7E6FF"/>
<path d="M411.513 218.072V215.064H407.757V218.072H411.2H411.513Z" fill="#E7E6FF"/>
<path d="M497.513 218.072V215.064H493.757V218.072H497.2H497.513Z" fill="#E7E6FF"/>
<path d="M82.6761 219.963H79.2329V222.971H82.9894V219.963H82.6761Z" fill="#E7E6FF"/>
<path d="M411.2 220.579H407.757V223.587H411.513V220.579H411.2Z" fill="#E7E6FF"/>
<path d="M497.2 220.579H493.757V223.587H497.513V220.579H497.2Z" fill="#E7E6FF"/>
<path d="M87.9979 214.448H84.6588V217.456H87.9979V214.448Z" fill="#E7E6FF"/>
<path d="M416.522 215.064H413.183V218.072H416.522V215.064Z" fill="#E7E6FF"/>
<path d="M502.522 215.064H499.183V218.072H502.522V215.064Z" fill="#E7E6FF"/>
<path d="M87.998 219.963H84.6589V222.971H87.998V219.963Z" fill="#E7E6FF"/>
<path d="M416.522 220.579H413.183V223.587H416.522V220.579Z" fill="#E7E6FF"/>
<path d="M502.522 220.579H499.183V223.587H502.522V220.579Z" fill="#E7E6FF"/>
<path d="M128.067 217.957V214.949H124.728V217.957H127.789H128.067Z" fill="#E7E6FF"/>
<path d="M127.789 220.464H124.728V223.472H128.067V220.464H127.789Z" fill="#E7E6FF"/>
<path d="M133.493 214.949H129.737V217.957H133.493V214.949Z" fill="#E7E6FF"/>
<path d="M133.493 220.464H129.737V223.473H133.493V220.464Z" fill="#E7E6FF"/>
<path d="M5.08956 160.261L2.43359 157.914L17.3078 143.251H55.0244V156.155L30.5883 174.337L5.08956 160.261Z" fill="#E7E6FF"/>
<path d="M62.0268 151.47V143.544H56.9649V145.485L55.0756 143.251L42.7248 157.902L37.8922 161.419L30.3985 221.167L41.6995 233.5H67.9633V158.488L62.0268 151.47Z" fill="#E7E6FF"/>
<path d="M42.9201 157.791H2.43359L2.43359 233.5H42.9201L42.9201 157.791Z" fill="#6C63FF" fill-opacity="0.4"/>
<path d="M25.3899 214.949H17.8769L17.8769 233.5H25.3899V214.949Z" fill="#E7E6FF"/>
<path d="M9.9468 220.464V217.456H7.02509V220.464H9.7035H9.9468Z" fill="#E7E6FF"/>
<path d="M9.7035 222.47H7.02509V225.98H9.9468V222.47H9.7035Z" fill="#E7E6FF"/>
<path d="M15.3725 217.456H12.0334V220.464H15.3725V217.456Z" fill="#E7E6FF"/>
<path d="M15.3725 222.47H12.0334V225.979H15.3725V222.47Z" fill="#E7E6FF"/>
<path d="M32.0682 220.464V217.456H28.3117V220.464H31.7554H32.0682Z" fill="#E7E6FF"/>
<path d="M31.7556 222.47H28.3119V225.979H32.0684V222.47H31.7556Z" fill="#E7E6FF"/>
<path d="M37.0768 217.456H33.7377V220.464H37.0768V217.456Z" fill="#E7E6FF"/>
<path d="M37.0767 222.47H33.7376V225.98H37.0767V222.47Z" fill="#E7E6FF"/>
<path d="M54.1898 161.802V158.794H51.2681V161.802H53.9465H54.1898Z" fill="#E7E6FF"/>
<path d="M53.9467 163.808H51.2683V166.816H54.19V163.808H53.9467Z" fill="#E7E6FF"/>
<path d="M59.6157 158.794H56.694V161.802H59.6157V158.794Z" fill="#E7E6FF"/>
<path d="M59.6157 163.808H56.694V166.816H59.6157V163.808Z" fill="#E7E6FF"/>
<path d="M54.19 178.348V175.34H51.2682V178.348H53.9467H54.19Z" fill="#E7E6FF"/>
<path d="M53.9466 179.852H51.2682V183.362H54.1899V179.852H53.9466Z" fill="#E7E6FF"/>
<path d="M59.6157 175.34H56.694V178.348H59.6157V175.34Z" fill="#E7E6FF"/>
<path d="M59.6158 179.852H56.6941V183.362H59.6158V179.852Z" fill="#E7E6FF"/>
<path d="M54.1898 194.392V191.384H51.2681V194.392H53.9465H54.1898Z" fill="#E7E6FF"/>
<path d="M53.9465 196.398H51.2681V199.406H54.1898V196.398H53.9465Z" fill="#E7E6FF"/>
<path d="M59.6159 191.384H56.6942V194.392H59.6159V191.384Z" fill="#E7E6FF"/>
<path d="M59.6158 196.398H56.6941V199.406H59.6158V196.398Z" fill="#E7E6FF"/>
<path d="M54.1898 210.437V207.93H51.2681V210.437H53.9465H54.1898Z" fill="#E7E6FF"/>
<path d="M53.9465 212.943H51.2681V215.952H54.1898V212.943H53.9465Z" fill="#E7E6FF"/>
<path d="M59.6158 207.93H56.6941V210.437H59.6158V207.93Z" fill="#E7E6FF"/>
<path d="M59.6157 212.943H56.694V215.952H59.6157V212.943Z" fill="#E7E6FF"/>
<path d="M37.4942 161.803H7.02496L7.02496 168.321H37.4942V161.803Z" fill="#E7E6FF"/>
<path d="M37.4942 175.841H7.02496L7.02496 182.359H37.4942V175.841Z" fill="#E7E6FF"/>
<path d="M37.4942 189.88H7.02496L7.02496 196.398H37.4942V189.88Z" fill="#E7E6FF"/>
<path d="M37.4944 203.919H7.02515L7.02515 210.437H37.4944V203.919Z" fill="#E7E6FF"/>
<path d="M161.214 160.261L158.537 157.914L173.529 143.251H211.545V156.155L186.915 174.337L161.214 160.261Z" fill="#E7E6FF"/>
<path d="M218.547 151.47V143.544H213.485V145.485L211.596 143.251L199.245 157.902L194.412 161.419L186.919 221.167L198.22 233.5H224.484V158.488L218.547 151.47Z" fill="#E7E6FF"/>
<path d="M199.44 157.791H158.536V233.5H199.44V157.791Z" fill="#6C63FF" fill-opacity="0.4"/>
<path d="M181.91 214.949H174.397V233.5H181.91V214.949Z" fill="#E7E6FF"/>
<path d="M166.467 220.464V217.456H162.71V220.464H166.154H166.467Z" fill="#E7E6FF"/>
<path d="M166.154 222.47H162.71V225.979H166.467V222.47H166.154Z" fill="#E7E6FF"/>
<path d="M171.475 217.456H168.553V220.464H171.475V217.456Z" fill="#E7E6FF"/>
<path d="M171.475 222.47H168.553V225.979H171.475V222.47Z" fill="#E7E6FF"/>
<path d="M188.171 220.464V217.456H184.832V220.464H187.893H188.171Z" fill="#E7E6FF"/>
<path d="M187.893 222.47H184.832V225.979H188.171V222.47H187.893Z" fill="#E7E6FF"/>
<path d="M193.597 217.456H190.258V220.464H193.597V217.456Z" fill="#E7E6FF"/>
<path d="M193.597 222.47H190.257V225.98H193.597V222.47Z" fill="#E7E6FF"/>
<path d="M210.71 161.802V158.794H207.371V161.802H210.432H210.71Z" fill="#E7E6FF"/>
<path d="M210.431 163.808H207.37V166.816H210.71V163.808H210.431Z" fill="#E7E6FF"/>
<path d="M216.136 158.794H213.214V161.802H216.136V158.794Z" fill="#E7E6FF"/>
<path d="M216.136 163.808H213.214V166.816H216.136V163.808Z" fill="#E7E6FF"/>
<path d="M210.71 178.348V175.34H207.371V178.348H210.432H210.71Z" fill="#E7E6FF"/>
<path d="M210.432 179.852H207.371V183.362H210.71V179.852H210.432Z" fill="#E7E6FF"/>
<path d="M216.136 175.34H213.214V178.348H216.136V175.34Z" fill="#E7E6FF"/>
<path d="M216.136 179.852H213.214V183.362H216.136V179.852Z" fill="#E7E6FF"/>
<path d="M210.71 194.392V191.384H207.371V194.392H210.432H210.71Z" fill="#E7E6FF"/>
<path d="M210.432 196.398H207.371V199.406H210.71V196.398H210.432Z" fill="#E7E6FF"/>
<path d="M216.136 191.384H213.214V194.392H216.136V191.384Z" fill="#E7E6FF"/>
<path d="M216.136 196.398H213.214V199.406H216.136V196.398Z" fill="#E7E6FF"/>
<path d="M210.71 210.436V207.93H207.371V210.436H210.432H210.71Z" fill="#E7E6FF"/>
<path d="M210.432 212.943H207.371V215.952H210.71V212.943H210.432Z" fill="#E7E6FF"/>
<path d="M216.136 207.93H213.214V210.436H216.136V207.93Z" fill="#E7E6FF"/>
<path d="M216.136 212.943H213.214V215.952H216.136V212.943Z" fill="#E7E6FF"/>
<path d="M194.014 161.803H162.71V168.321H194.014V161.803Z" fill="#E7E6FF"/>
<path d="M194.014 175.841H162.71V182.359H194.014V175.841Z" fill="#E7E6FF"/>
<path d="M194.014 189.88H162.71V196.398H194.014V189.88Z" fill="#E7E6FF"/>
<path d="M194.014 203.919H162.71V210.437H194.014V203.919Z" fill="#E7E6FF"/>
<path d="M246.778 160.261L244.101 157.914L259.093 143.251H297.109V156.155L272.479 174.337L246.778 160.261Z" fill="#E7E6FF"/>
<path d="M336.778 160.261L334.101 157.914L349.093 143.251H387.109V156.155L362.479 174.337L336.778 160.261Z" fill="#E7E6FF"/>
<path d="M304.111 151.47V143.544H299.049V145.485L297.16 143.251L284.809 157.902L279.977 161.418L272.483 221.167L283.784 233.5H310.048V158.488L304.111 151.47Z" fill="#E7E6FF"/>
<path d="M394.111 151.47V143.544H389.049V145.485L387.16 143.251L374.809 157.902L369.977 161.418L362.483 221.167L373.784 233.5H400.048V158.488L394.111 151.47Z" fill="#E7E6FF"/>
<path d="M284.587 157.791H244.101V233.5H284.587V157.791Z" fill="#6C63FF" fill-opacity="0.4"/>
<path d="M374.587 157.791H334.101V233.5H374.587V157.791Z" fill="#6C63FF" fill-opacity="0.4"/>
<path d="M267.892 214.949H259.962V233.5H267.892V214.949Z" fill="#E7E6FF"/>
<path d="M357.892 214.949H349.962V233.5H357.892V214.949Z" fill="#E7E6FF"/>
<path d="M252.031 220.464V217.456H248.692V220.464H251.753H252.031Z" fill="#E7E6FF"/>
<path d="M251.753 222.47H248.692V225.98H252.031V222.47H251.753Z" fill="#E7E6FF"/>
<path d="M341.753 222.47H338.692V225.98H342.031V222.47H341.753Z" fill="#E7E6FF"/>
<path d="M257.457 217.456H254.118V220.464H257.457V217.456Z" fill="#E7E6FF"/>
<path d="M347.457 217.456H344.118V220.464H347.457V217.456Z" fill="#E7E6FF"/>
<path d="M257.457 222.47H254.118V225.979H257.457V222.47Z" fill="#E7E6FF"/>
<path d="M347.457 222.47H344.118V225.979H347.457V222.47Z" fill="#E7E6FF"/>
<path d="M274.153 220.464V217.456H270.814V220.464H273.875H274.153Z" fill="#E7E6FF"/>
<path d="M273.875 222.47H270.814V225.979H274.153V222.47H273.875Z" fill="#E7E6FF"/>
<path d="M279.578 217.456H276.239V220.464H279.578V217.456Z" fill="#E7E6FF"/>
<path d="M279.579 222.47H276.24V225.979H279.579V222.47Z" fill="#E7E6FF"/>
<path d="M296.692 161.802V158.794H292.935V161.802H296.379H296.692Z" fill="#E7E6FF"/>
<path d="M296.379 163.808H292.935V166.816H296.692V163.808H296.379Z" fill="#E7E6FF"/>
<path d="M301.7 158.794H298.361V161.802H301.7V158.794Z" fill="#E7E6FF"/>
<path d="M301.7 163.808H298.361V166.816H301.7V163.808Z" fill="#E7E6FF"/>
<path d="M296.692 178.348V175.34H292.935V178.348H296.379H296.692Z" fill="#E7E6FF"/>
<path d="M296.379 179.852H292.935V183.362H296.691V179.852H296.379Z" fill="#E7E6FF"/>
<path d="M301.7 175.34H298.361V178.348H301.7V175.34Z" fill="#E7E6FF"/>
<path d="M301.7 179.852H298.361V183.362H301.7V179.852Z" fill="#E7E6FF"/>
<path d="M296.691 194.392V191.384H292.935V194.392H296.379H296.691Z" fill="#E7E6FF"/>
<path d="M296.379 196.398H292.935V199.406H296.692V196.398H296.379Z" fill="#E7E6FF"/>
<path d="M301.7 191.384H298.361V194.392H301.7V191.384Z" fill="#E7E6FF"/>
<path d="M301.7 196.398H298.361V199.406H301.7V196.398Z" fill="#E7E6FF"/>
<path d="M296.691 210.437V207.93H292.935V210.437H296.379H296.691Z" fill="#E7E6FF"/>
<path d="M296.379 212.943H292.935V215.952H296.692V212.943H296.379Z" fill="#E7E6FF"/>
<path d="M301.7 207.93H298.361V210.437H301.7V207.93Z" fill="#E7E6FF"/>
<path d="M301.7 212.943H298.361V215.952H301.7V212.943Z" fill="#E7E6FF"/>
<path d="M279.996 161.802H248.692V168.32H279.996V161.802Z" fill="#E7E6FF"/>
<path d="M369.996 161.802H338.692V168.32H369.996V161.802Z" fill="#E7E6FF"/>
<path d="M279.996 175.841H248.692V182.359H279.996V175.841Z" fill="#E7E6FF"/>
<path d="M369.996 175.841H338.692V182.359H369.996V175.841Z" fill="#E7E6FF"/>
<path d="M279.996 189.88H248.692V196.398H279.996V189.88Z" fill="#E7E6FF"/>
<path d="M369.996 189.88H338.692V196.398H369.996V189.88Z" fill="#E7E6FF"/>
<path d="M279.996 203.919H248.692V210.437H279.996V203.919Z" fill="#E7E6FF"/>
<path d="M369.996 203.919H338.692V210.437H369.996V203.919Z" fill="#E7E6FF"/>
<path d="M337.178 232.999H-104V234.001H337.178V232.999Z" fill="#E7E6FF"/>
<path d="M427.178 232.999H-14V234.001H427.178V232.999Z" fill="#E7E6FF"/>
<path d="M1.5986 203.88C1.64756 215.787 -5.82548 225.478 -5.82548 225.478C-5.82548 225.478 -13.3779 215.864 -13.4269 203.957C-13.4758 192.05 -6.00277 182.359 -6.00277 182.359C-6.00277 182.359 1.54965 191.973 1.5986 203.88Z" fill="#6C63FF" fill-opacity="0.4"/>
<path d="M72.1371 199.406H71.3023V232.999H72.1371V199.406Z" fill="#E7E6FF"/>
<path d="M79.2326 203.88C79.2816 215.787 71.8085 225.478 71.8085 225.478C71.8085 225.478 64.2561 215.864 64.2071 203.957C64.1582 192.05 71.6312 182.359 71.6312 182.359C71.6312 182.359 79.1836 191.973 79.2326 203.88Z" fill="#6C63FF" fill-opacity="0.4"/>
<path d="M226.988 199.406H226.153V232.999H226.988V199.406Z" fill="#E7E6FF"/>
<path d="M316.988 199.406H316.153V232.999H316.988V199.406Z" fill="#E7E6FF"/>
<path d="M234.083 203.88C234.132 215.787 226.659 225.478 226.659 225.478C226.659 225.478 219.107 215.864 219.058 203.957C219.009 192.05 226.482 182.359 226.482 182.359C226.482 182.359 234.034 191.973 234.083 203.88Z" fill="#6C63FF" fill-opacity="0.4"/>
<path d="M324.083 203.88C324.132 215.787 316.659 225.478 316.659 225.478C316.659 225.478 309.107 215.864 309.058 203.957C309.009 192.05 316.482 182.359 316.482 182.359C316.482 182.359 324.034 191.973 324.083 203.88Z" fill="#6C63FF" fill-opacity="0.4"/>
<path d="M249.803 33.8977C246.865 43.4773 222.668 62.2831 222.668 62.2831C222.668 62.2831 215.083 26.9248 218.021 17.3453C219.432 12.745 222.459 9.20515 226.437 7.50437C230.415 5.80359 235.017 6.08123 239.231 8.27622C243.446 10.4712 246.927 14.4037 248.91 19.2087C250.892 24.0137 251.213 29.2975 249.803 33.8977Z" fill="#6C63FF" fill-opacity="0.4"/>
<path d="M231.144 35.3807C236.174 38.0005 241.595 35.747 243.251 30.3472C244.907 24.9475 242.171 18.4463 237.141 15.8264C232.111 13.2066 226.69 15.4601 225.034 20.8599C223.378 26.2596 226.114 32.7608 231.144 35.3807Z" fill="#6C63FF" fill-opacity="0.4"/>
<path d="M16.2544 42.8802C17.0123 43.2594 18.3436 43.5712 19.8843 43.8219C24.0735 44.5045 29.8142 44.7468 29.8142 44.7468C29.8142 44.7468 59.3256 48.0704 81.4439 35.7095C81.4439 35.7095 84.661 33.4194 81.6766 30.3371C81.217 29.8765 80.7285 29.4718 80.2166 29.1278L80.1801 29.0783C79.8407 28.6522 79.4738 28.2683 79.084 27.9311C77.9381 26.9251 76.0033 25.7326 73.6481 26.273L15.5562 39.031C15.5562 39.031 13.4344 41.4654 16.2544 42.8802Z" fill="#E7E6FF"/>
<path d="M27.8296 37.0976L15.6685 25.3815L10.3086 26.6403L15.5568 39.0306C15.5568 39.0306 27.6899 39.1623 27.8296 37.0976Z" fill="#E7E6FF"/>
<path d="M58.4459 29.9799L34.2222 20.7551L30.3177 21.8633L41.26 28.5473L44.6797 33.7427L58.4459 29.9799Z" fill="#E7E6FF"/>
<path d="M19.8843 43.8221C24.0736 44.5047 29.8143 44.747 29.8143 44.747C29.8143 44.747 59.3257 48.0706 81.4439 35.7097C81.4439 35.7097 84.6611 33.4196 81.6767 30.3373L81.6666 30.3942C81.6666 30.3942 76.894 34.7743 54.0908 38.4307L19.8843 43.8221Z" fill="#6C63FF" fill-opacity="0.4"/>
<path d="M23.7782 43.569L12.9483 49.5735L10.2277 49.1637L16.7054 42.5525C16.7054 42.5525 24.5408 40.2823 23.7782 43.569Z" fill="#E7E6FF"/>
<path d="M77.7395 31.0353C78.2562 31.0469 79.4401 29.8703 80.1763 29.0781C79.8368 28.6521 79.47 28.2681 79.0801 27.9309C78.4866 28.5493 77.4308 29.55 76.8435 29.511C75.9956 29.4636 76.9614 31.0164 77.7395 31.0353Z" fill="#6C63FF" fill-opacity="0.4"/>
<path d="M28.5392 64.3244L35.4926 64.8184L55.0422 46.9187L58.6713 43.5952L60.4338 41.9803C57.1267 38.188 43.6336 43.4182 43.6336 43.4182C43.3752 43.7142 43.293 44.2061 43.3046 44.7497C43.3271 45.7673 43.6793 46.9619 43.8151 47.3917C43.8477 47.497 43.8679 47.5529 43.8679 47.5529L28.5392 64.3244Z" fill="#E7E6FF"/>
<path d="M51.4388 55.0436L52.6451 56.0802L51.9144 54.2757C52.1213 54.0515 52.3773 53.9273 52.642 53.9228H52.6614C52.7451 53.925 52.8287 53.9165 52.9112 53.8975L53.3193 54.2493L53.1447 53.8174C53.4338 53.6796 53.6836 53.4216 53.8585 53.08L54.5885 53.7121L54.1276 52.5723C54.5543 51.876 55.13 51.4493 55.7638 51.4493C56.5233 51.4493 57.1997 52.0624 57.6365 53.0189C57.766 53.3054 57.9491 53.5401 58.1671 53.6992C58.3852 53.8584 58.6304 53.9362 58.8777 53.9249H58.9181C59.7567 53.9249 60.4363 55.2153 60.4363 56.8081C60.4363 58.4009 59.7567 59.6913 58.9181 59.6913C58.7338 59.6905 58.5525 59.6287 58.3898 59.5112C58.1042 59.3231 57.7921 59.2213 57.4748 59.213C57.1575 59.2046 56.8426 59.2898 56.552 59.4627C56.3061 59.6117 56.0399 59.6887 55.7707 59.6887C55.5015 59.6887 55.2354 59.6117 54.9895 59.4627C54.7013 59.2931 54.3895 59.2095 54.0754 59.2177C53.7612 59.2258 53.4521 59.3256 53.1688 59.5101C53.0071 59.6247 52.8275 59.685 52.6451 59.686C51.8065 59.686 51.1269 58.3956 51.1269 56.8028C51.1209 56.1902 51.2281 55.5854 51.4388 55.0436Z" fill="#6C63FF" fill-opacity="0.4"/>
<path opacity="0.03" d="M53.7081 59.2628C54.1462 59.1502 54.599 59.217 55.0091 59.4545C55.2547 59.6038 55.5208 59.681 55.7899 59.681C56.0591 59.681 56.3251 59.6038 56.5708 59.4545C56.8614 59.2811 57.1762 59.1957 57.4936 59.204C57.8109 59.2124 58.1232 59.3144 58.4086 59.503C58.5716 59.6201 58.7532 59.6819 58.9377 59.6831C59.6824 59.6831 60.3023 58.6634 60.431 57.3192C60.282 57.1723 60.1555 56.9873 60.0587 56.7746C59.6219 55.8191 58.9454 55.2061 58.1859 55.2061C57.4264 55.2061 56.7569 55.8065 56.321 56.7546C56.1908 57.0403 56.0085 57.2756 55.7917 57.4374C55.5749 57.5993 55.331 57.6823 55.0836 57.6784H55.0642C54.4715 57.6763 53.9579 58.321 53.7081 59.2628Z" fill="black"/>
<path d="M17.3818 53.6746L18.5881 54.7112L17.8573 52.9066C18.0643 52.6825 18.3203 52.5583 18.585 52.5538H18.6044C18.6881 52.556 18.7717 52.5475 18.8542 52.5285L19.2623 52.8803L19.0877 52.4484C19.3768 52.3106 19.6266 52.0526 19.8014 51.711L20.5315 52.3431L20.0706 51.2033C20.4973 50.507 21.0729 50.0803 21.7068 50.0803C22.4662 50.0803 23.1427 50.6934 23.5795 51.6499C23.709 51.9363 23.8921 52.1711 24.1101 52.3302C24.3282 52.4893 24.5733 52.5672 24.8207 52.5559H24.8611C25.6997 52.5559 26.3793 53.8463 26.3793 55.4391C26.3793 57.0318 25.6997 58.3223 24.8611 58.3223C24.6768 58.3215 24.4955 58.2597 24.3328 58.1421C24.0472 57.9541 23.7351 57.8523 23.4178 57.844C23.1005 57.8356 22.7856 57.9208 22.4949 58.0937C22.2491 58.2427 21.9829 58.3196 21.7137 58.3196C21.4445 58.3196 21.1784 58.2427 20.9325 58.0937C20.6443 57.924 20.3325 57.8405 20.0184 57.8486C19.7042 57.8568 19.3951 57.9566 19.1118 58.1411C18.9501 58.2557 18.7705 58.316 18.5881 58.317C17.7495 58.317 17.0699 57.0266 17.0699 55.4338C17.0639 54.8212 17.1711 54.2164 17.3818 53.6746Z" fill="#6C63FF" fill-opacity="0.4"/>
<path opacity="0.03" d="M19.6509 57.8931C20.089 57.7806 20.5418 57.8473 20.9519 58.0849C21.1975 58.2342 21.4636 58.3114 21.7327 58.3114C22.0019 58.3114 22.2679 58.2342 22.5136 58.0849C22.8042 57.9115 23.1191 57.826 23.4364 57.8344C23.7538 57.8428 24.066 57.9448 24.3514 58.1333C24.5145 58.2505 24.696 58.3123 24.8805 58.3135C25.6252 58.3135 26.2451 57.2938 26.3738 55.9496C26.2248 55.8026 26.0983 55.6177 26.0015 55.405C25.5647 54.4495 24.8882 53.8364 24.1287 53.8364C23.3692 53.8364 22.6998 54.4369 22.2638 55.385C22.1333 55.6715 21.9504 55.9072 21.7329 56.0691C21.5153 56.231 21.2706 56.3136 21.0225 56.3088H21.0031C20.4143 56.3067 19.9007 56.9514 19.6509 57.8931Z" fill="black"/>
<path d="M17.3819 19.1223L18.5882 20.1589L17.8574 18.3544C18.0643 18.1302 18.3204 18.006 18.5851 18.0015H18.6045C18.6881 18.0037 18.7718 17.9953 18.8543 17.9762L19.2623 18.3281L19.0878 17.8962C19.3769 17.7584 19.6266 17.5004 19.8015 17.1588L20.5315 17.7908L20.0707 16.651C20.4974 15.9547 21.073 15.5281 21.7068 15.5281C22.4663 15.5281 23.1428 16.1412 23.5796 17.0977C23.7091 17.3841 23.8922 17.6188 24.1102 17.778C24.3282 17.9371 24.5734 18.015 24.8208 18.0036H24.8611C25.6998 18.0036 26.3793 19.2941 26.3793 20.8868C26.3793 22.4796 25.6998 23.77 24.8611 23.77C24.6769 23.7692 24.4955 23.7074 24.3328 23.5899C24.0473 23.4018 23.7351 23.3001 23.4178 23.2917C23.1005 23.2833 22.7857 23.3686 22.495 23.5414C22.2495 23.6912 21.9834 23.7691 21.7142 23.77C21.445 23.7709 21.1787 23.6949 20.9326 23.5467C20.6443 23.3771 20.3326 23.2935 20.0184 23.3017C19.7043 23.3098 19.3951 23.4096 19.1118 23.5941C18.9501 23.7087 18.7706 23.769 18.5882 23.77C17.7496 23.77 17.07 22.4796 17.07 20.8868C17.0633 20.2725 17.1706 19.6657 17.3819 19.1223Z" fill="#6C63FF" fill-opacity="0.4"/>
<path opacity="0.03" d="M19.651 23.3411C20.0891 23.2286 20.5419 23.2953 20.952 23.5329C21.1976 23.6822 21.4637 23.7594 21.7328 23.7594C22.0019 23.7594 22.268 23.6822 22.5136 23.5329C22.8042 23.3595 23.1191 23.274 23.4365 23.2824C23.7538 23.2908 24.066 23.3928 24.3514 23.5813C24.5145 23.6985 24.696 23.7603 24.8805 23.7615C25.6253 23.7615 26.2451 22.7417 26.3739 21.3976C26.2249 21.2506 26.0984 21.0657 26.0015 20.853C25.5648 19.8975 24.8883 19.2844 24.1288 19.2844C23.3693 19.2844 22.6998 19.8849 22.2638 20.833C22.1334 21.1195 21.9505 21.3552 21.7329 21.5171C21.5154 21.679 21.2706 21.7616 21.0226 21.7568H21.0032C20.4144 21.7547 19.9008 22.3994 19.651 23.3411Z" fill="black"/>
<path d="M67.1884 15.3943L67.7897 15.9116L67.4251 15.012C67.5281 14.8995 67.6559 14.8372 67.7881 14.835H67.7974C67.8393 14.8356 67.881 14.8313 67.9223 14.8223L68.1256 14.9972L68.0387 14.7865C68.1829 14.7179 68.3075 14.5893 68.3948 14.4189L68.7586 14.7349L68.5259 14.1671C68.6227 13.9972 68.7461 13.8587 68.8873 13.7617C69.0285 13.6648 69.1838 13.6118 69.342 13.6067C69.7206 13.6067 70.0581 13.9122 70.2729 14.3894C70.3376 14.5326 70.4292 14.65 70.5382 14.7294C70.6473 14.8088 70.7699 14.8474 70.8936 14.8413H70.9137C71.3319 14.8413 71.6709 15.486 71.6709 16.2803C71.6709 17.0745 71.3319 17.7182 70.9137 17.7182C70.8218 17.7178 70.7313 17.6871 70.65 17.6286C70.5076 17.5345 70.3518 17.4836 70.1935 17.4794C70.0351 17.4752 69.878 17.5179 69.733 17.6044C69.6109 17.6781 69.4787 17.7162 69.3451 17.7162C69.2115 17.7162 69.0793 17.6781 68.9572 17.6044C68.8134 17.5197 68.6578 17.478 68.5011 17.4822C68.3443 17.4864 68.1901 17.5363 68.0488 17.6286C67.9682 17.6853 67.8789 17.7152 67.7881 17.7161C67.37 17.7161 67.031 17.0724 67.031 16.2782C67.028 15.9703 67.0822 15.6663 67.1884 15.3943Z" fill="#6C63FF" fill-opacity="0.4"/>
<path opacity="0.03" d="M68.3205 17.499C68.5392 17.4421 68.7653 17.4755 68.9698 17.5949C69.0921 17.6681 69.2241 17.7062 69.3577 17.7065C69.4928 17.7065 69.6264 17.6673 69.7495 17.5917C69.8946 17.5055 70.0517 17.4632 70.21 17.4675C70.3684 17.4719 70.5241 17.5229 70.6665 17.617C70.7475 17.6754 70.8377 17.7061 70.9295 17.7065C71.3011 17.7065 71.6106 17.1977 71.675 16.5277C71.6009 16.4539 71.5377 16.3617 71.4888 16.256C71.2716 15.7788 70.9341 15.4733 70.5579 15.4733C70.1816 15.4733 69.8457 15.7756 69.6269 16.2465C69.5617 16.3897 69.4702 16.5074 69.3614 16.5881C69.2526 16.6688 69.1303 16.7097 69.0063 16.7068H68.9962C68.7038 16.7068 68.4454 17.0292 68.3205 17.499Z" fill="black"/>
<path d="M13.6596 66.9065L14.2608 67.4238L13.8962 66.5242C13.9992 66.4117 14.1271 66.3494 14.2593 66.3472H14.2686C14.3104 66.3478 14.3522 66.3435 14.3935 66.3345L14.5967 66.5094L14.5098 66.2987C14.6541 66.2301 14.7787 66.1015 14.8659 65.9311L15.2298 66.2471L14.997 65.6793C15.0938 65.5094 15.2173 65.3709 15.3585 65.2739C15.4996 65.177 15.655 65.124 15.8131 65.1189C16.1917 65.1189 16.5292 65.4244 16.7441 65.9016C16.8088 66.0448 16.9003 66.1622 17.0094 66.2416C17.1184 66.321 17.241 66.3596 17.3647 66.3535H17.3849C17.803 66.3535 18.142 66.9982 18.142 67.7925C18.142 68.5868 17.803 69.2304 17.3849 69.2304C17.2929 69.23 17.2024 69.1993 17.1211 69.1409C16.9787 69.0467 16.8229 68.9958 16.6646 68.9916C16.5062 68.9874 16.3491 69.0301 16.2041 69.1166C16.082 69.1903 15.9499 69.2284 15.8162 69.2284C15.6826 69.2284 15.5505 69.1903 15.4284 69.1166C15.2845 69.0319 15.1289 68.9902 14.9722 68.9944C14.8154 68.9986 14.6612 69.0485 14.5199 69.1409C14.4393 69.1975 14.35 69.2274 14.2593 69.2283C13.8411 69.2283 13.5021 68.5846 13.5021 67.7904C13.4992 67.4825 13.5533 67.1785 13.6596 66.9065Z" fill="#6C63FF" fill-opacity="0.4"/>
<path opacity="0.03" d="M14.7916 69.0111C15.0102 68.9542 15.2364 68.9876 15.4409 69.1069C15.5631 69.1802 15.6952 69.2182 15.8288 69.2186C15.9639 69.2186 16.0975 69.1794 16.2206 69.1038C16.3657 69.0176 16.5228 68.9753 16.6811 68.9796C16.8394 68.984 16.9952 69.035 17.1375 69.1291C17.2186 69.1875 17.3088 69.2182 17.4005 69.2186C17.7721 69.2186 18.0817 68.7098 18.1461 68.0398C18.0719 67.966 18.0088 67.8738 17.9599 67.768C17.7427 67.2908 17.4052 66.9854 17.0289 66.9854C16.6527 66.9854 16.3168 67.2877 16.098 67.7586C16.0328 67.9018 15.9413 68.0195 15.8325 68.1002C15.7237 68.1809 15.6013 68.2218 15.4774 68.2189H15.4673C15.1748 68.2189 14.9165 68.5413 14.7916 69.0111Z" fill="black"/>
<path d="M69.5157 69.6452L70.1169 70.1624L69.7523 69.2628C69.8553 69.1503 69.9831 69.088 70.1153 69.0858H70.1246C70.1665 69.0864 70.2082 69.0822 70.2495 69.0732L70.4528 69.2481L70.3659 69.0374C70.5101 68.9688 70.6347 68.8401 70.722 68.6697L71.0858 68.9858L70.8531 68.418C70.9499 68.248 71.0734 68.1095 71.2145 68.0126C71.3557 67.9156 71.5111 67.8627 71.6692 67.8575C72.0478 67.8575 72.3853 68.163 72.6002 68.6402C72.6648 68.7835 72.7564 68.9008 72.8654 68.9802C72.9745 69.0596 73.0971 69.0983 73.2208 69.0921H73.2409C73.6591 69.0921 73.9981 69.7368 73.9981 70.5311C73.9981 71.3254 73.6591 71.969 73.2409 71.969C73.149 71.9686 73.0585 71.9379 72.9772 71.8795C72.8348 71.7854 72.679 71.7344 72.5207 71.7303C72.3623 71.7261 72.2052 71.7687 72.0602 71.8553C71.9381 71.929 71.806 71.9671 71.6723 71.9671C71.5387 71.9671 71.4065 71.929 71.2844 71.8553C71.1406 71.7705 70.985 71.7289 70.8283 71.733C70.6715 71.7372 70.5173 71.7872 70.376 71.8795C70.2954 71.9361 70.2061 71.9661 70.1153 71.9669C69.6972 71.9669 69.3582 71.3233 69.3582 70.529C69.3552 70.2211 69.4094 69.9172 69.5157 69.6452Z" fill="#6C63FF" fill-opacity="0.4"/>
<path d="M51.432 4.69046L50.2257 5.72703L50.9565 3.92252C50.7496 3.69833 50.4935 3.57415 50.2288 3.56962H50.2094C50.1258 3.57184 50.0421 3.56338 49.9596 3.54434L49.5516 3.89618L49.7261 3.46428C49.437 3.3265 49.1873 3.06847 49.0124 2.72689L48.2824 3.35894L48.7432 2.21914C48.3165 1.52283 47.7409 1.09619 47.1071 1.09619C46.3476 1.09619 45.6711 1.70928 45.2344 2.66579C45.1048 2.95222 44.9217 3.18695 44.7037 3.34608C44.4857 3.50522 44.2405 3.58307 43.9931 3.57173H43.9528C43.1142 3.57173 42.4346 4.86217 42.4346 6.45494C42.4346 8.04771 43.1142 9.33816 43.9528 9.33816C44.137 9.33736 44.3184 9.27553 44.4811 9.15802C44.7666 8.96993 45.0788 8.8682 45.3961 8.85983C45.7134 8.85146 46.0282 8.93667 46.3189 9.10956C46.5645 9.25936 46.8305 9.33725 47.0997 9.33816C47.3689 9.33906 47.6352 9.26297 47.8813 9.11483C48.1696 8.94517 48.4813 8.8616 48.7955 8.86978C49.1096 8.87796 49.4188 8.9777 49.7021 9.16223C49.8638 9.27682 50.0433 9.33714 50.2257 9.33816C51.0643 9.33816 51.7439 8.04771 51.7439 6.45494C51.7506 5.84057 51.6434 5.23379 51.432 4.69046Z" fill="#6C63FF" fill-opacity="0.4"/>
<path opacity="0.03" d="M49.1627 8.90926C48.7246 8.79671 48.2718 8.86344 47.8617 9.10098C47.6161 9.25032 47.35 9.32751 47.0809 9.32751C46.8117 9.32751 46.5457 9.25032 46.3 9.10098C46.0094 8.9276 45.6945 8.84213 45.3772 8.8505C45.0598 8.85887 44.7476 8.96087 44.4622 9.14944C44.2991 9.2666 44.1176 9.3284 43.9331 9.32958C43.1884 9.32958 42.5685 8.30986 42.4398 6.9657C42.5888 6.81876 42.7153 6.63376 42.8121 6.42108C43.2489 5.46563 43.9254 4.85254 44.6849 4.85254C45.4443 4.85254 46.1138 5.45299 46.5498 6.40107C46.6803 6.6876 46.8632 6.92332 47.0807 7.08523C47.2983 7.24715 47.543 7.32973 47.7911 7.32492H47.8105C48.3993 7.32281 48.9129 7.9675 49.1627 8.90926Z" fill="black"/>
<path d="M92.5462 22.7681L91.9449 23.2854L92.3096 22.3857C92.2065 22.2733 92.0787 22.211 91.9465 22.2088H91.9372C91.8954 22.2093 91.8536 22.2051 91.8123 22.1961L91.609 22.371L91.6959 22.1603C91.5517 22.0917 91.4271 21.963 91.3398 21.7927L90.976 22.1087L91.2087 21.5409C91.112 21.3709 90.9885 21.2324 90.8473 21.1355C90.7061 21.0385 90.5508 20.9856 90.3926 20.9805C90.014 20.9805 89.6766 21.286 89.4617 21.7632C89.397 21.9064 89.3054 22.0237 89.1964 22.1032C89.0873 22.1826 88.9647 22.2212 88.8411 22.2151H88.8209C88.4027 22.2151 88.0637 22.8598 88.0637 23.6541C88.0637 24.4483 88.4027 25.092 88.8209 25.092C88.9128 25.0916 89.0034 25.0608 89.0846 25.0024C89.227 24.9083 89.3828 24.8574 89.5412 24.8532C89.6995 24.849 89.8566 24.8917 90.0016 24.9782C90.1237 25.0519 90.2559 25.09 90.3895 25.09C90.5231 25.09 90.6553 25.0519 90.7774 24.9782C90.9212 24.8935 91.0768 24.8518 91.2336 24.856C91.3903 24.8601 91.5446 24.9101 91.6858 25.0024C91.7664 25.0591 91.8557 25.089 91.9465 25.0899C92.3646 25.0899 92.7037 24.4462 92.7037 23.6519C92.7066 23.3441 92.6524 23.0401 92.5462 22.7681Z" fill="#6C63FF" fill-opacity="0.4"/>
<path opacity="0.03" d="M91.4145 24.8725C91.1959 24.8157 90.9697 24.8491 90.7652 24.9684C90.643 25.0417 90.5109 25.0797 90.3773 25.0801C90.2435 25.0793 90.1114 25.0401 89.9894 24.9652C89.8444 24.8791 89.6872 24.8367 89.5289 24.8411C89.3706 24.8454 89.2149 24.8964 89.0725 24.9905C88.9915 25.0489 88.9012 25.0796 88.8095 25.0801C88.4379 25.0801 88.1284 24.5713 88.064 23.9013C88.1381 23.8274 88.2013 23.7352 88.2502 23.6295C88.4674 23.1523 88.8048 22.8468 89.1811 22.8468C89.5573 22.8468 89.8933 23.1491 90.112 23.62C90.1769 23.7624 90.2677 23.8797 90.3758 23.9603C90.4839 24.041 90.6055 24.0823 90.7288 24.0804H90.7388C91.0313 24.0804 91.2896 24.4027 91.4145 24.8725Z" fill="black"/>
</g>
<g opacity="0.6">
<path d="M1021.59 194.023L1020.84 193.837C1029.29 152.83 1050.52 115.592 1080.63 88.9824C1103.4 68.896 1130.48 55.4621 1159.31 49.9456C1188.15 44.4291 1217.8 47.0116 1245.47 57.4498C1273.13 67.888 1297.91 85.8386 1317.47 109.611C1337.03 133.384 1350.72 162.197 1357.25 193.336L1356.49 193.524C1338.61 107.82 1269.77 47.9631 1189.1 47.9631C1109.48 47.9631 1039.04 109.39 1021.59 194.023Z" fill="#BFBBFA"/>
<path d="M1269.42 69.8319C1276.91 73.7338 1283.43 75.4379 1283.98 73.6379C1284.53 71.838 1278.91 67.2158 1271.42 63.3138C1263.92 59.4119 1257.4 57.7079 1256.85 59.5078C1256.3 61.3077 1261.92 65.93 1269.42 69.8319Z" fill="#6C63FF" fill-opacity="0.4"/>
<path d="M1293.14 132.215C1304.79 132.215 1314.22 121.889 1314.22 109.152C1314.22 96.4138 1304.79 86.0879 1293.14 86.0879C1281.5 86.0879 1272.07 96.4138 1272.07 109.152C1272.07 121.889 1281.5 132.215 1293.14 132.215Z" fill="#E7E6FF"/>
<path d="M1292.1 205.88C1292.15 217.787 1284.68 227.478 1284.68 227.478C1284.68 227.478 1277.12 217.864 1277.07 205.957C1277.03 194.05 1284.5 184.359 1284.5 184.359C1284.5 184.359 1292.05 193.973 1292.1 205.88Z" fill="#6C63FF" fill-opacity="0.4"/>
<path opacity="0.1" d="M1292.1 205.88C1292.15 217.787 1284.68 227.478 1284.68 227.478C1284.68 227.478 1277.12 217.864 1277.07 205.957C1277.03 194.05 1284.5 184.359 1284.5 184.359C1284.5 184.359 1292.05 193.973 1292.1 205.88Z" fill="black"/>
<path opacity="0.4" d="M1138.5 134.221C1145.19 134.221 1150.61 128.385 1150.61 121.185C1150.61 113.985 1145.19 108.149 1138.5 108.149C1131.82 108.149 1126.4 113.985 1126.4 121.185C1126.4 128.385 1131.82 134.221 1138.5 134.221Z" fill="#6C63FF" fill-opacity="0.4"/>
<path opacity="0.4" d="M1115.96 136.728C1120.57 136.728 1124.31 132.575 1124.31 127.452C1124.31 122.329 1120.57 118.176 1115.96 118.176C1111.35 118.176 1107.62 122.329 1107.62 127.452C1107.62 132.575 1111.35 136.728 1115.96 136.728Z" fill="#6C63FF" fill-opacity="0.4"/>
<path opacity="0.4" d="M1024.76 163.803C1029.49 163.803 1033.32 159.65 1033.32 154.527C1033.32 149.404 1029.49 145.251 1024.76 145.251C1020.04 145.251 1016.21 149.404 1016.21 154.527C1016.21 159.65 1020.04 163.803 1024.76 163.803Z" fill="#6C63FF" fill-opacity="0.4"/>
<path opacity="0.4" d="M1276.24 133.719C1282.92 133.719 1288.34 127.659 1288.34 120.182C1288.34 112.706 1282.92 106.645 1276.24 106.645C1269.55 106.645 1264.14 112.706 1264.14 120.182C1264.14 127.659 1269.55 133.719 1276.24 133.719Z" fill="#6C63FF" fill-opacity="0.4"/>
<path d="M965.899 231.464C966.543 233.957 968.749 235.5 968.749 235.5C968.749 235.5 969.91 233.003 969.266 230.511C968.622 228.019 966.417 226.475 966.417 226.475C966.417 226.475 965.255 228.972 965.899 231.464Z" fill="#E7E6FF"/>
<path d="M967.103 230.582C968.832 232.521 969.043 235.5 969.043 235.5C969.043 235.5 966.451 235.337 964.722 233.399C962.993 231.461 962.782 228.481 962.782 228.481C962.782 228.481 965.374 228.644 967.103 230.582Z" fill="#6C63FF" fill-opacity="0.4"/>
<path d="M1203.39 231.465C1204.04 233.957 1206.24 235.5 1206.24 235.5C1206.24 235.5 1207.4 233.003 1206.76 230.511C1206.12 228.019 1203.91 226.475 1203.91 226.475C1203.91 226.475 1202.75 228.972 1203.39 231.465Z" fill="#E7E6FF"/>
<path d="M1204.47 230.582C1206.31 232.52 1206.54 235.5 1206.54 235.5C1206.54 235.5 1203.77 235.337 1201.93 233.399C1200.08 231.46 1199.86 228.481 1199.86 228.481C1199.86 228.481 1202.62 228.644 1204.47 230.582Z" fill="#6C63FF" fill-opacity="0.4"/>
<path d="M970.229 211.409L968.626 208.474L983.585 194.387H1022.05V198.495L1008.16 214.931L992.133 218.453L970.229 211.409Z" fill="#E7E6FF"/>
<path d="M1029.05 202.592V193.384H1024.05V196.287L1022.47 194.303L1009.72 208.428L1007.59 210.782L1004.94 222.553L1009.72 235.5H1034.16V209.016L1029.05 202.592Z" fill="#E7E6FF"/>
<path d="M1009.53 208.426H968.626V235.5H1009.53V208.426Z" fill="#6C63FF" fill-opacity="0.4"/>
<path d="M1004.1 216.949H995.338V225.472H1004.1V216.949Z" fill="#E7E6FF"/>
<path d="M991.999 216.448H984.069V235.5H991.999V216.448Z" fill="#E7E6FF"/>
<path d="M975.721 219.456V216.448H972.382V219.456H975.443H975.721Z" fill="#E7E6FF"/>
<path d="M975.443 221.963H972.382V224.971H975.721V221.963H975.443Z" fill="#E7E6FF"/>
<path d="M981.147 216.448H977.808V219.456H981.147V216.448Z" fill="#E7E6FF"/>
<path d="M981.147 221.963H977.808V224.971H981.147V221.963Z" fill="#E7E6FF"/>
<path d="M1021.22 219.957V216.949H1017.46V219.957H1020.9H1021.22Z" fill="#E7E6FF"/>
<path d="M1020.9 222.464H1017.46V225.473H1021.22V222.464H1020.9Z" fill="#E7E6FF"/>
<path d="M1026.23 216.949H1022.89V219.957H1026.23V216.949Z" fill="#E7E6FF"/>
<path d="M1026.23 222.464H1022.89V225.473H1026.23V222.464Z" fill="#E7E6FF"/>
<path d="M1125.09 211.409L1123.48 208.474L1138.55 194.387H1177.32V198.495L1163.32 214.931L1147.17 218.453L1125.09 211.409Z" fill="#E7E6FF"/>
<path d="M1183.9 202.592V193.384H1178.9V196.287L1177.32 194.303L1164.57 208.428L1162.45 210.782L1159.79 222.553L1164.57 235.5H1189.01V209.016L1183.9 202.592Z" fill="#E7E6FF"/>
<path d="M1164.38 208.425H1123.48V235.5H1164.38V208.425Z" fill="#6C63FF" fill-opacity="0.4"/>
<path d="M1158.54 216.949H1150.19V225.472H1158.54V216.949Z" fill="#E7E6FF"/>
<path d="M1146.85 216.448H1139.34V235.5H1146.85V216.448Z" fill="#E7E6FF"/>
<path d="M1130.99 219.456V216.448H1127.23V219.456H1130.68H1130.99Z" fill="#E7E6FF"/>
<path d="M1130.68 221.963H1127.23V224.971H1130.99V221.963H1130.68Z" fill="#E7E6FF"/>
<path d="M1136 216.448H1132.66V219.456H1136V216.448Z" fill="#E7E6FF"/>
<path d="M1136 221.963H1132.66V224.971H1136V221.963Z" fill="#E7E6FF"/>
<path d="M1176.07 219.957V216.949H1172.73V219.957H1175.79H1176.07Z" fill="#E7E6FF"/>
<path d="M1175.79 222.464H1172.73V225.472H1176.07V222.464H1175.79Z" fill="#E7E6FF"/>
<path d="M1181.49 216.949H1177.74V219.957H1181.49V216.949Z" fill="#E7E6FF"/>
<path d="M1181.49 222.464H1177.74V225.473H1181.49V222.464Z" fill="#E7E6FF"/>
<path d="M1053.09 162.261L1050.43 159.914L1065.31 145.251H1103.02V158.155L1078.59 176.337L1053.09 162.261Z" fill="#E7E6FF"/>
<path d="M1110.03 153.47V145.544H1104.96V147.485L1103.08 145.251L1090.72 159.902L1085.89 163.419L1078.4 223.167L1089.7 235.5H1115.96V160.488L1110.03 153.47Z" fill="#E7E6FF"/>
<path d="M1090.92 159.791H1050.43V235.5H1090.92V159.791Z" fill="#6C63FF" fill-opacity="0.4"/>
<path d="M1073.39 216.949H1065.88V235.5H1073.39V216.949Z" fill="#E7E6FF"/>
<path d="M1057.95 222.464V219.456H1055.03V222.464H1057.7H1057.95Z" fill="#E7E6FF"/>
<path d="M1057.7 224.47H1055.03V227.98H1057.95V224.47H1057.7Z" fill="#E7E6FF"/>
<path d="M1063.37 219.456H1060.03V222.464H1063.37V219.456Z" fill="#E7E6FF"/>
<path d="M1063.37 224.47H1060.03V227.979H1063.37V224.47Z" fill="#E7E6FF"/>
<path d="M1080.07 222.464V219.456H1076.31V222.464H1079.76H1080.07Z" fill="#E7E6FF"/>
<path d="M1079.76 224.47H1076.31V227.979H1080.07V224.47H1079.76Z" fill="#E7E6FF"/>
<path d="M1085.08 219.456H1081.74V222.464H1085.08V219.456Z" fill="#E7E6FF"/>
<path d="M1085.08 224.47H1081.74V227.98H1085.08V224.47Z" fill="#E7E6FF"/>
<path d="M1102.19 163.802V160.794H1099.27V163.802H1101.95H1102.19Z" fill="#E7E6FF"/>
<path d="M1101.95 165.808H1099.27V168.816H1102.19V165.808H1101.95Z" fill="#E7E6FF"/>
<path d="M1107.62 160.794H1104.69V163.802H1107.62V160.794Z" fill="#E7E6FF"/>
<path d="M1107.62 165.808H1104.69V168.816H1107.62V165.808Z" fill="#E7E6FF"/>
<path d="M1102.19 180.348V177.34H1099.27V180.348H1101.95H1102.19Z" fill="#E7E6FF"/>
<path d="M1101.95 181.852H1099.27V185.362H1102.19V181.852H1101.95Z" fill="#E7E6FF"/>
<path d="M1107.62 177.34H1104.69V180.348H1107.62V177.34Z" fill="#E7E6FF"/>
<path d="M1107.62 181.852H1104.69V185.362H1107.62V181.852Z" fill="#E7E6FF"/>
<path d="M1102.19 196.392V193.384H1099.27V196.392H1101.95H1102.19Z" fill="#E7E6FF"/>
<path d="M1101.95 198.398H1099.27V201.406H1102.19V198.398H1101.95Z" fill="#E7E6FF"/>
<path d="M1107.62 193.384H1104.69V196.392H1107.62V193.384Z" fill="#E7E6FF"/>
<path d="M1107.62 198.398H1104.69V201.406H1107.62V198.398Z" fill="#E7E6FF"/>
<path d="M1102.19 212.437V209.93H1099.27V212.437H1101.95H1102.19Z" fill="#E7E6FF"/>
<path d="M1101.95 214.943H1099.27V217.952H1102.19V214.943H1101.95Z" fill="#E7E6FF"/>
<path d="M1107.62 209.93H1104.69V212.437H1107.62V209.93Z" fill="#E7E6FF"/>
<path d="M1107.62 214.943H1104.69V217.952H1107.62V214.943Z" fill="#E7E6FF"/>
<path d="M1085.49 163.803H1055.03V170.321H1085.49V163.803Z" fill="#E7E6FF"/>
<path d="M1085.49 177.841H1055.02V184.359H1085.49V177.841Z" fill="#E7E6FF"/>
<path d="M1085.49 191.88H1055.02V198.398H1085.49V191.88Z" fill="#E7E6FF"/>
<path d="M1085.49 205.919H1055.03V212.437H1085.49V205.919Z" fill="#E7E6FF"/>
<path d="M1209.21 162.261L1206.54 159.914L1221.53 145.251H1259.54V158.155L1234.91 176.337L1209.21 162.261Z" fill="#E7E6FF"/>
<path d="M1266.55 153.47V145.544H1261.49V147.485L1259.6 145.251L1247.25 159.902L1242.41 163.419L1234.92 223.167L1246.22 235.5H1272.48V160.488L1266.55 153.47Z" fill="#E7E6FF"/>
<path d="M1247.44 159.791H1206.54V235.5H1247.44V159.791Z" fill="#6C63FF" fill-opacity="0.4"/>
<path d="M1229.91 216.949H1222.4V235.5H1229.91V216.949Z" fill="#E7E6FF"/>
<path d="M1214.47 222.464V219.456H1210.71V222.464H1214.15H1214.47Z" fill="#E7E6FF"/>
<path d="M1214.15 224.47H1210.71V227.979H1214.47V224.47H1214.15Z" fill="#E7E6FF"/>
<path d="M1219.48 219.456H1216.55V222.464H1219.48V219.456Z" fill="#E7E6FF"/>
<path d="M1219.47 224.47H1216.55V227.979H1219.47V224.47Z" fill="#E7E6FF"/>
<path d="M1236.17 222.464V219.456H1232.83V222.464H1235.89H1236.17Z" fill="#E7E6FF"/>
<path d="M1235.89 224.47H1232.83V227.979H1236.17V224.47H1235.89Z" fill="#E7E6FF"/>
<path d="M1241.6 219.456H1238.26V222.464H1241.6V219.456Z" fill="#E7E6FF"/>
<path d="M1241.6 224.47H1238.26V227.98H1241.6V224.47Z" fill="#E7E6FF"/>
<path d="M1258.71 163.802V160.794H1255.37V163.802H1258.43H1258.71Z" fill="#E7E6FF"/>
<path d="M1258.43 165.808H1255.37V168.816H1258.71V165.808H1258.43Z" fill="#E7E6FF"/>
<path d="M1264.14 160.794H1261.21V163.802H1264.14V160.794Z" fill="#E7E6FF"/>
<path d="M1264.14 165.808H1261.21V168.816H1264.14V165.808Z" fill="#E7E6FF"/>
<path d="M1258.71 180.348V177.34H1255.37V180.348H1258.43H1258.71Z" fill="#E7E6FF"/>
<path d="M1258.43 181.852H1255.37V185.362H1258.71V181.852H1258.43Z" fill="#E7E6FF"/>
<path d="M1264.14 177.34H1261.21V180.348H1264.14V177.34Z" fill="#E7E6FF"/>
<path d="M1264.14 181.852H1261.21V185.362H1264.14V181.852Z" fill="#E7E6FF"/>
<path d="M1258.71 196.392V193.384H1255.37V196.392H1258.43H1258.71Z" fill="#E7E6FF"/>
<path d="M1258.43 198.398H1255.37V201.406H1258.71V198.398H1258.43Z" fill="#E7E6FF"/>
<path d="M1264.14 193.384H1261.21V196.392H1264.14V193.384Z" fill="#E7E6FF"/>
<path d="M1264.14 198.398H1261.21V201.406H1264.14V198.398Z" fill="#E7E6FF"/>
<path d="M1258.71 212.436V209.93H1255.37V212.436H1258.43H1258.71Z" fill="#E7E6FF"/>
<path d="M1258.43 214.943H1255.37V217.952H1258.71V214.943H1258.43Z" fill="#E7E6FF"/>
<path d="M1264.14 209.93H1261.21V212.436H1264.14V209.93Z" fill="#E7E6FF"/>
<path d="M1264.14 214.943H1261.21V217.952H1264.14V214.943Z" fill="#E7E6FF"/>
<path d="M1242.01 163.803H1210.71V170.321H1242.01V163.803Z" fill="#E7E6FF"/>
<path d="M1242.01 177.841H1210.71V184.359H1242.01V177.841Z" fill="#E7E6FF"/>
<path d="M1242.01 191.88H1210.71V198.398H1242.01V191.88Z" fill="#E7E6FF"/>
<path d="M1242.01 205.919H1210.71V212.437H1242.01V205.919Z" fill="#E7E6FF"/>
<path d="M1042.92 201.406H1042.09V234.999H1042.92V201.406Z" fill="#E7E6FF"/>
<path d="M1049.6 205.88C1049.65 217.787 1042.17 227.478 1042.17 227.478C1042.17 227.478 1034.62 217.864 1034.57 205.957C1034.52 194.05 1042 184.359 1042 184.359C1042 184.359 1049.55 193.973 1049.6 205.88Z" fill="#6C63FF" fill-opacity="0.4"/>
<path d="M1120.14 201.406H1119.3V234.999H1120.14V201.406Z" fill="#E7E6FF"/>
<path d="M1127.23 205.88C1127.28 217.787 1119.81 227.478 1119.81 227.478C1119.81 227.478 1112.26 217.864 1112.21 205.957C1112.16 194.05 1119.63 184.359 1119.63 184.359C1119.63 184.359 1127.18 193.973 1127.23 205.88Z" fill="#6C63FF" fill-opacity="0.4"/>
<path d="M1274.99 201.406H1274.15V234.999H1274.99V201.406Z" fill="#E7E6FF"/>
<path d="M1282.08 205.88C1282.13 217.787 1274.66 227.478 1274.66 227.478C1274.66 227.478 1267.11 217.864 1267.06 205.957C1267.01 194.05 1274.48 184.359 1274.48 184.359C1274.48 184.359 1282.03 193.973 1282.08 205.88Z" fill="#6C63FF" fill-opacity="0.4"/>
<path d="M1297.8 35.8977C1294.86 45.4773 1270.67 64.2831 1270.67 64.2831C1270.67 64.2831 1263.08 28.9248 1266.02 19.3453C1267.43 14.745 1270.46 11.2051 1274.44 9.50437C1278.41 7.80359 1283.02 8.08123 1287.23 10.2762C1291.45 12.4712 1294.93 16.4037 1296.91 21.2087C1298.89 26.0137 1299.21 31.2975 1297.8 35.8977Z" fill="#6C63FF" fill-opacity="0.4"/>
<path d="M1279.14 37.3807C1284.17 40.0005 1289.59 37.747 1291.25 32.3472C1292.91 26.9475 1290.17 20.4463 1285.14 17.8264C1280.11 15.2066 1274.69 17.4601 1273.03 22.8599C1271.38 28.2596 1274.11 34.7608 1279.14 37.3807Z" fill="#6C63FF" fill-opacity="0.4"/>
<path d="M1064.25 44.8802C1065.01 45.2594 1066.34 45.5712 1067.88 45.8219C1072.07 46.5045 1077.81 46.7468 1077.81 46.7468C1077.81 46.7468 1107.33 50.0704 1129.44 37.7095C1129.44 37.7095 1132.66 35.4194 1129.68 32.3371C1129.22 31.8765 1128.73 31.4718 1128.22 31.1278L1128.18 31.0783C1127.84 30.6522 1127.47 30.2683 1127.08 29.9311C1125.94 28.9251 1124 27.7326 1121.65 28.273L1063.56 41.031C1063.56 41.031 1061.43 43.4654 1064.25 44.8802Z" fill="#E7E6FF"/>
<path d="M1075.83 39.0976L1063.67 27.3815L1058.31 28.6403L1063.56 41.0306C1063.56 41.0306 1075.69 41.1623 1075.83 39.0976Z" fill="#E7E6FF"/>
<path d="M1106.45 31.9799L1082.22 22.7551L1078.32 23.8633L1089.26 30.5473L1092.68 35.7427L1106.45 31.9799Z" fill="#E7E6FF"/>
<path d="M1067.88 45.8221C1072.07 46.5047 1077.81 46.747 1077.81 46.747C1077.81 46.747 1107.33 50.0706 1129.44 37.7097C1129.44 37.7097 1132.66 35.4196 1129.68 32.3373L1129.67 32.3942C1129.67 32.3942 1124.89 36.7743 1102.09 40.4307L1067.88 45.8221Z" fill="#6C63FF" fill-opacity="0.4"/>
<path d="M1071.78 45.569L1060.95 51.5735L1058.23 51.1637L1064.71 44.5525C1064.71 44.5525 1072.54 42.2823 1071.78 45.569Z" fill="#E7E6FF"/>
<path d="M1125.74 33.0353C1126.26 33.0469 1127.44 31.8703 1128.18 31.0781C1127.84 30.6521 1127.47 30.2681 1127.08 29.9309C1126.49 30.5493 1125.43 31.55 1124.84 31.511C1124 31.4636 1124.96 33.0164 1125.74 33.0353Z" fill="#6C63FF" fill-opacity="0.4"/>
<path d="M1076.54 66.3244L1083.49 66.8184L1103.04 48.9187L1106.67 45.5952L1108.43 43.9803C1105.13 40.188 1091.63 45.4182 1091.63 45.4182C1091.38 45.7142 1091.29 46.2061 1091.3 46.7497C1091.33 47.7673 1091.68 48.9619 1091.82 49.3917C1091.85 49.497 1091.87 49.5529 1091.87 49.5529L1076.54 66.3244Z" fill="#E7E6FF"/>
<path d="M1099.44 57.0436L1100.65 58.0802L1099.91 56.2757C1100.12 56.0515 1100.38 55.9273 1100.64 55.9228H1100.66C1100.75 55.925 1100.83 55.9165 1100.91 55.8975L1101.32 56.2493L1101.14 55.8174C1101.43 55.6796 1101.68 55.4216 1101.86 55.08L1102.59 55.7121L1102.13 54.5723C1102.55 53.876 1103.13 53.4493 1103.76 53.4493C1104.52 53.4493 1105.2 54.0624 1105.64 55.0189C1105.77 55.3054 1105.95 55.5401 1106.17 55.6992C1106.39 55.8584 1106.63 55.9362 1106.88 55.9249H1106.92C1107.76 55.9249 1108.44 57.2153 1108.44 58.8081C1108.44 60.4009 1107.76 61.6913 1106.92 61.6913C1106.73 61.6905 1106.55 61.6287 1106.39 61.5112C1106.1 61.3231 1105.79 61.2213 1105.47 61.213C1105.16 61.2046 1104.84 61.2898 1104.55 61.4627C1104.31 61.6117 1104.04 61.6887 1103.77 61.6887C1103.5 61.6887 1103.24 61.6117 1102.99 61.4627C1102.7 61.2931 1102.39 61.2095 1102.08 61.2177C1101.76 61.2258 1101.45 61.3256 1101.17 61.5101C1101.01 61.6247 1100.83 61.685 1100.65 61.686C1099.81 61.686 1099.13 60.3956 1099.13 58.8028C1099.12 58.1902 1099.23 57.5854 1099.44 57.0436Z" fill="#6C63FF" fill-opacity="0.4"/>
<path opacity="0.03" d="M1101.71 61.2628C1102.15 61.1502 1102.6 61.217 1103.01 61.4545C1103.25 61.6038 1103.52 61.681 1103.79 61.681C1104.06 61.681 1104.33 61.6038 1104.57 61.4545C1104.86 61.2811 1105.18 61.1957 1105.49 61.204C1105.81 61.2124 1106.12 61.3144 1106.41 61.503C1106.57 61.6201 1106.75 61.6819 1106.94 61.6831C1107.68 61.6831 1108.3 60.6634 1108.43 59.3192C1108.28 59.1723 1108.16 58.9873 1108.06 58.7746C1107.62 57.8191 1106.95 57.2061 1106.19 57.2061C1105.43 57.2061 1104.76 57.8065 1104.32 58.7546C1104.19 59.0403 1104.01 59.2756 1103.79 59.4374C1103.57 59.5993 1103.33 59.6823 1103.08 59.6784H1103.06C1102.47 59.6763 1101.96 60.321 1101.71 61.2628Z" fill="black"/>
<path d="M1065.38 55.6746L1066.59 56.7112L1065.86 54.9066C1066.06 54.6825 1066.32 54.5583 1066.59 54.5538H1066.6C1066.69 54.556 1066.77 54.5475 1066.85 54.5285L1067.26 54.8803L1067.09 54.4484C1067.38 54.3106 1067.63 54.0526 1067.8 53.711L1068.53 54.3431L1068.07 53.2033C1068.5 52.507 1069.07 52.0803 1069.71 52.0803C1070.47 52.0803 1071.14 52.6934 1071.58 53.6499C1071.71 53.9363 1071.89 54.1711 1072.11 54.3302C1072.33 54.4893 1072.57 54.5672 1072.82 54.5559H1072.86C1073.7 54.5559 1074.38 55.8463 1074.38 57.4391C1074.38 59.0318 1073.7 60.3223 1072.86 60.3223C1072.68 60.3215 1072.5 60.2597 1072.33 60.1421C1072.05 59.9541 1071.74 59.8523 1071.42 59.844C1071.1 59.8356 1070.79 59.9208 1070.49 60.0937C1070.25 60.2427 1069.98 60.3196 1069.71 60.3196C1069.44 60.3196 1069.18 60.2427 1068.93 60.0937C1068.64 59.924 1068.33 59.8405 1068.02 59.8486C1067.7 59.8568 1067.4 59.9566 1067.11 60.1411C1066.95 60.2557 1066.77 60.316 1066.59 60.317C1065.75 60.317 1065.07 59.0266 1065.07 57.4338C1065.06 56.8212 1065.17 56.2164 1065.38 55.6746Z" fill="#6C63FF" fill-opacity="0.4"/>
<path opacity="0.03" d="M1067.65 59.8931C1068.09 59.7806 1068.54 59.8473 1068.95 60.0849C1069.2 60.2342 1069.46 60.3114 1069.73 60.3114C1070 60.3114 1070.27 60.2342 1070.51 60.0849C1070.8 59.9115 1071.12 59.826 1071.44 59.8344C1071.75 59.8428 1072.07 59.9448 1072.35 60.1333C1072.51 60.2505 1072.7 60.3123 1072.88 60.3135C1073.63 60.3135 1074.25 59.2938 1074.37 57.9496C1074.22 57.8026 1074.1 57.6177 1074 57.405C1073.56 56.4495 1072.89 55.8364 1072.13 55.8364C1071.37 55.8364 1070.7 56.4369 1070.26 57.385C1070.13 57.6715 1069.95 57.9072 1069.73 58.0691C1069.52 58.231 1069.27 58.3136 1069.02 58.3088H1069C1068.41 58.3067 1067.9 58.9514 1067.65 59.8931Z" fill="black"/>
<path d="M1065.38 21.1223L1066.59 22.1589L1065.86 20.3544C1066.06 20.1302 1066.32 20.006 1066.59 20.0015H1066.6C1066.69 20.0037 1066.77 19.9953 1066.85 19.9762L1067.26 20.3281L1067.09 19.8962C1067.38 19.7584 1067.63 19.5004 1067.8 19.1588L1068.53 19.7908L1068.07 18.651C1068.5 17.9547 1069.07 17.5281 1069.71 17.5281C1070.47 17.5281 1071.14 18.1412 1071.58 19.0977C1071.71 19.3841 1071.89 19.6188 1072.11 19.778C1072.33 19.9371 1072.57 20.015 1072.82 20.0036H1072.86C1073.7 20.0036 1074.38 21.2941 1074.38 22.8868C1074.38 24.4796 1073.7 25.77 1072.86 25.77C1072.68 25.7692 1072.5 25.7074 1072.33 25.5899C1072.05 25.4018 1071.74 25.3001 1071.42 25.2917C1071.1 25.2833 1070.79 25.3686 1070.49 25.5414C1070.25 25.6912 1069.98 25.7691 1069.71 25.77C1069.44 25.7709 1069.18 25.6949 1068.93 25.5467C1068.64 25.3771 1068.33 25.2935 1068.02 25.3017C1067.7 25.3098 1067.4 25.4096 1067.11 25.5941C1066.95 25.7087 1066.77 25.769 1066.59 25.77C1065.75 25.77 1065.07 24.4796 1065.07 22.8868C1065.06 22.2725 1065.17 21.6657 1065.38 21.1223Z" fill="#6C63FF" fill-opacity="0.4"/>
<path opacity="0.03" d="M1067.65 25.3411C1068.09 25.2286 1068.54 25.2953 1068.95 25.5329C1069.2 25.6822 1069.46 25.7594 1069.73 25.7594C1070 25.7594 1070.27 25.6822 1070.51 25.5329C1070.8 25.3595 1071.12 25.274 1071.44 25.2824C1071.75 25.2908 1072.07 25.3928 1072.35 25.5813C1072.51 25.6985 1072.7 25.7603 1072.88 25.7615C1073.63 25.7615 1074.25 24.7417 1074.37 23.3976C1074.22 23.2506 1074.1 23.0657 1074 22.853C1073.56 21.8975 1072.89 21.2844 1072.13 21.2844C1071.37 21.2844 1070.7 21.8849 1070.26 22.833C1070.13 23.1195 1069.95 23.3552 1069.73 23.5171C1069.52 23.679 1069.27 23.7616 1069.02 23.7568H1069C1068.41 23.7547 1067.9 24.3994 1067.65 25.3411Z" fill="black"/>
<path d="M1115.19 17.3943L1115.79 17.9116L1115.43 17.012C1115.53 16.8995 1115.66 16.8372 1115.79 16.835H1115.8C1115.84 16.8356 1115.88 16.8313 1115.92 16.8223L1116.13 16.9972L1116.04 16.7865C1116.18 16.7179 1116.31 16.5893 1116.39 16.4189L1116.76 16.7349L1116.53 16.1671C1116.62 15.9972 1116.75 15.8587 1116.89 15.7617C1117.03 15.6648 1117.18 15.6118 1117.34 15.6067C1117.72 15.6067 1118.06 15.9122 1118.27 16.3894C1118.34 16.5326 1118.43 16.65 1118.54 16.7294C1118.65 16.8088 1118.77 16.8474 1118.89 16.8413H1118.91C1119.33 16.8413 1119.67 17.486 1119.67 18.2803C1119.67 19.0745 1119.33 19.7182 1118.91 19.7182C1118.82 19.7178 1118.73 19.6871 1118.65 19.6286C1118.51 19.5345 1118.35 19.4836 1118.19 19.4794C1118.04 19.4752 1117.88 19.5179 1117.73 19.6044C1117.61 19.6781 1117.48 19.7162 1117.35 19.7162C1117.21 19.7162 1117.08 19.6781 1116.96 19.6044C1116.81 19.5197 1116.66 19.478 1116.5 19.4822C1116.34 19.4864 1116.19 19.5363 1116.05 19.6286C1115.97 19.6853 1115.88 19.7152 1115.79 19.7161C1115.37 19.7161 1115.03 19.0724 1115.03 18.2782C1115.03 17.9703 1115.08 17.6663 1115.19 17.3943Z" fill="#6C63FF" fill-opacity="0.4"/>
<path opacity="0.03" d="M1116.32 19.499C1116.54 19.4421 1116.77 19.4755 1116.97 19.5949C1117.09 19.6681 1117.22 19.7062 1117.36 19.7065C1117.49 19.7065 1117.63 19.6673 1117.75 19.5917C1117.89 19.5055 1118.05 19.4632 1118.21 19.4675C1118.37 19.4719 1118.52 19.5229 1118.67 19.617C1118.75 19.6754 1118.84 19.7061 1118.93 19.7065C1119.3 19.7065 1119.61 19.1977 1119.68 18.5277C1119.6 18.4539 1119.54 18.3617 1119.49 18.256C1119.27 17.7788 1118.93 17.4733 1118.56 17.4733C1118.18 17.4733 1117.85 17.7756 1117.63 18.2465C1117.56 18.3897 1117.47 18.5074 1117.36 18.5881C1117.25 18.6688 1117.13 18.7097 1117.01 18.7068H1117C1116.7 18.7068 1116.45 19.0292 1116.32 19.499Z" fill="black"/>
<path d="M1061.66 68.9065L1062.26 69.4238L1061.9 68.5242C1062 68.4117 1062.13 68.3494 1062.26 68.3472H1062.27C1062.31 68.3478 1062.35 68.3435 1062.39 68.3345L1062.6 68.5094L1062.51 68.2987C1062.65 68.2301 1062.78 68.1015 1062.87 67.9311L1063.23 68.2471L1063 67.6793C1063.09 67.5094 1063.22 67.3709 1063.36 67.2739C1063.5 67.177 1063.65 67.124 1063.81 67.1189C1064.19 67.1189 1064.53 67.4244 1064.74 67.9016C1064.81 68.0448 1064.9 68.1622 1065.01 68.2416C1065.12 68.321 1065.24 68.3596 1065.36 68.3535H1065.38C1065.8 68.3535 1066.14 68.9982 1066.14 69.7925C1066.14 70.5868 1065.8 71.2304 1065.38 71.2304C1065.29 71.23 1065.2 71.1993 1065.12 71.1409C1064.98 71.0467 1064.82 70.9958 1064.66 70.9916C1064.51 70.9874 1064.35 71.0301 1064.2 71.1166C1064.08 71.1903 1063.95 71.2284 1063.82 71.2284C1063.68 71.2284 1063.55 71.1903 1063.43 71.1166C1063.28 71.0319 1063.13 70.9902 1062.97 70.9944C1062.82 70.9986 1062.66 71.0485 1062.52 71.1409C1062.44 71.1975 1062.35 71.2274 1062.26 71.2283C1061.84 71.2283 1061.5 70.5846 1061.5 69.7904C1061.5 69.4825 1061.55 69.1785 1061.66 68.9065Z" fill="#6C63FF" fill-opacity="0.4"/>
<path opacity="0.03" d="M1062.79 71.0111C1063.01 70.9542 1063.24 70.9876 1063.44 71.1069C1063.56 71.1802 1063.7 71.2182 1063.83 71.2186C1063.96 71.2186 1064.1 71.1794 1064.22 71.1038C1064.37 71.0176 1064.52 70.9753 1064.68 70.9796C1064.84 70.984 1065 71.035 1065.14 71.1291C1065.22 71.1875 1065.31 71.2182 1065.4 71.2186C1065.77 71.2186 1066.08 70.7098 1066.15 70.0398C1066.07 69.966 1066.01 69.8738 1065.96 69.768C1065.74 69.2908 1065.41 68.9854 1065.03 68.9854C1064.65 68.9854 1064.32 69.2877 1064.1 69.7586C1064.03 69.9018 1063.94 70.0195 1063.83 70.1002C1063.72 70.1809 1063.6 70.2218 1063.48 70.2189H1063.47C1063.17 70.2189 1062.92 70.5413 1062.79 71.0111Z" fill="black"/>
<path d="M1117.52 71.6452L1118.12 72.1624L1117.75 71.2628C1117.86 71.1503 1117.98 71.088 1118.12 71.0858H1118.12C1118.17 71.0864 1118.21 71.0822 1118.25 71.0732L1118.45 71.2481L1118.37 71.0374C1118.51 70.9688 1118.63 70.8401 1118.72 70.6697L1119.09 70.9858L1118.85 70.418C1118.95 70.248 1119.07 70.1095 1119.21 70.0126C1119.36 69.9156 1119.51 69.8627 1119.67 69.8575C1120.05 69.8575 1120.39 70.163 1120.6 70.6402C1120.66 70.7835 1120.76 70.9008 1120.87 70.9802C1120.97 71.0596 1121.1 71.0983 1121.22 71.0921H1121.24C1121.66 71.0921 1122 71.7368 1122 72.5311C1122 73.3254 1121.66 73.969 1121.24 73.969C1121.15 73.9686 1121.06 73.9379 1120.98 73.8795C1120.83 73.7854 1120.68 73.7344 1120.52 73.7303C1120.36 73.7261 1120.21 73.7687 1120.06 73.8553C1119.94 73.929 1119.81 73.9671 1119.67 73.9671C1119.54 73.9671 1119.41 73.929 1119.28 73.8553C1119.14 73.7705 1118.98 73.7289 1118.83 73.733C1118.67 73.7372 1118.52 73.7872 1118.38 73.8795C1118.3 73.9361 1118.21 73.9661 1118.12 73.9669C1117.7 73.9669 1117.36 73.3233 1117.36 72.529C1117.36 72.2211 1117.41 71.9172 1117.52 71.6452Z" fill="#6C63FF" fill-opacity="0.4"/>
<path d="M1099.43 6.69046L1098.23 7.72703L1098.96 5.92252C1098.75 5.69833 1098.49 5.57415 1098.23 5.56962H1098.21C1098.13 5.57184 1098.04 5.56338 1097.96 5.54434L1097.55 5.89618L1097.73 5.46428C1097.44 5.3265 1097.19 5.06847 1097.01 4.72689L1096.28 5.35894L1096.74 4.21914C1096.32 3.52283 1095.74 3.09619 1095.11 3.09619C1094.35 3.09619 1093.67 3.70928 1093.23 4.66579C1093.1 4.95222 1092.92 5.18695 1092.7 5.34608C1092.49 5.50522 1092.24 5.58307 1091.99 5.57173H1091.95C1091.11 5.57173 1090.43 6.86217 1090.43 8.45494C1090.43 10.0477 1091.11 11.3382 1091.95 11.3382C1092.14 11.3374 1092.32 11.2755 1092.48 11.158C1092.77 10.9699 1093.08 10.8682 1093.4 10.8598C1093.71 10.8515 1094.03 10.9367 1094.32 11.1096C1094.56 11.2594 1094.83 11.3372 1095.1 11.3382C1095.37 11.3391 1095.64 11.263 1095.88 11.1148C1096.17 10.9452 1096.48 10.8616 1096.8 10.8698C1097.11 10.878 1097.42 10.9777 1097.7 11.1622C1097.86 11.2768 1098.04 11.3371 1098.23 11.3382C1099.06 11.3382 1099.74 10.0477 1099.74 8.45494C1099.75 7.84057 1099.64 7.23379 1099.43 6.69046Z" fill="#6C63FF" fill-opacity="0.4"/>
<path opacity="0.03" d="M1097.16 10.9093C1096.72 10.7967 1096.27 10.8634 1095.86 11.101C1095.62 11.2503 1095.35 11.3275 1095.08 11.3275C1094.81 11.3275 1094.55 11.2503 1094.3 11.101C1094.01 10.9276 1093.69 10.8421 1093.38 10.8505C1093.06 10.8589 1092.75 10.9609 1092.46 11.1494C1092.3 11.2666 1092.12 11.3284 1091.93 11.3296C1091.19 11.3296 1090.57 10.3099 1090.44 8.9657C1090.59 8.81876 1090.72 8.63376 1090.81 8.42108C1091.25 7.46563 1091.93 6.85254 1092.68 6.85254C1093.44 6.85254 1094.11 7.45299 1094.55 8.40107C1094.68 8.6876 1094.86 8.92332 1095.08 9.08523C1095.3 9.24715 1095.54 9.32973 1095.79 9.32492H1095.81C1096.4 9.32281 1096.91 9.9675 1097.16 10.9093Z" fill="black"/>
<path d="M1140.55 24.7681L1139.94 25.2854L1140.31 24.3857C1140.21 24.2733 1140.08 24.211 1139.95 24.2088H1139.94C1139.9 24.2093 1139.85 24.2051 1139.81 24.1961L1139.61 24.371L1139.7 24.1603C1139.55 24.0917 1139.43 23.963 1139.34 23.7927L1138.98 24.1087L1139.21 23.5409C1139.11 23.3709 1138.99 23.2324 1138.85 23.1355C1138.71 23.0385 1138.55 22.9856 1138.39 22.9805C1138.01 22.9805 1137.68 23.286 1137.46 23.7632C1137.4 23.9064 1137.31 24.0237 1137.2 24.1032C1137.09 24.1826 1136.96 24.2212 1136.84 24.2151H1136.82C1136.4 24.2151 1136.06 24.8598 1136.06 25.6541C1136.06 26.4483 1136.4 27.092 1136.82 27.092C1136.91 27.0916 1137 27.0608 1137.08 27.0024C1137.23 26.9083 1137.38 26.8574 1137.54 26.8532C1137.7 26.849 1137.86 26.8917 1138 26.9782C1138.12 27.0519 1138.26 27.09 1138.39 27.09C1138.52 27.09 1138.66 27.0519 1138.78 26.9782C1138.92 26.8935 1139.08 26.8518 1139.23 26.856C1139.39 26.8601 1139.54 26.9101 1139.69 27.0024C1139.77 27.0591 1139.86 27.089 1139.95 27.0899C1140.36 27.0899 1140.7 26.4462 1140.7 25.6519C1140.71 25.3441 1140.65 25.0401 1140.55 24.7681Z" fill="#6C63FF" fill-opacity="0.4"/>
<path opacity="0.03" d="M1139.41 26.8725C1139.2 26.8157 1138.97 26.8491 1138.77 26.9684C1138.64 27.0417 1138.51 27.0797 1138.38 27.0801C1138.24 27.0793 1138.11 27.0401 1137.99 26.9652C1137.84 26.8791 1137.69 26.8367 1137.53 26.8411C1137.37 26.8454 1137.21 26.8964 1137.07 26.9905C1136.99 27.0489 1136.9 27.0796 1136.81 27.0801C1136.44 27.0801 1136.13 26.5713 1136.06 25.9013C1136.14 25.8274 1136.2 25.7352 1136.25 25.6295C1136.47 25.1523 1136.8 24.8468 1137.18 24.8468C1137.56 24.8468 1137.89 25.1491 1138.11 25.62C1138.18 25.7624 1138.27 25.8797 1138.38 25.9603C1138.48 26.041 1138.61 26.0823 1138.73 26.0804H1138.74C1139.03 26.0804 1139.29 26.4027 1139.41 26.8725Z" fill="black"/>
</g>
</svg>
