<svg width="20" height="13" viewBox="0 0 20 13" fill="none" xmlns="http://www.w3.org/2000/svg">
<path d="M18.7693 0.544518C18.3139 0.137201 17.5767 0.137168 17.1212 0.544485L6.11707 10.3845L1.98878 6.69295C1.53339 6.28563 0.796193 6.2856 0.340762 6.69292C-0.113587 7.09923 -0.113587 7.76031 0.340762 8.16655L5.2931 12.595C5.74842 13.0021 6.48572 13.0022 6.94108 12.595L18.7693 2.01812C19.2236 1.61184 19.2236 0.950733 18.7693 0.544518Z" fill="#B7E183"/>
<path d="M18.7693 0.544518C18.3139 0.137201 17.5767 0.137168 17.1212 0.544485L9.08887 7.7271V10.6744L18.7693 2.01812C19.2236 1.61184 19.2236 0.950733 18.7693 0.544518Z" fill="#71DE56"/>
</svg>
