<svg width="55" height="55" viewBox="0 0 55 55" fill="none" xmlns="http://www.w3.org/2000/svg">
<path d="M42.7554 35.1055C43.6732 35.2972 44.6296 35.1256 45.4235 34.6267C46.2175 34.1278 46.787 33.3404 47.0124 32.4303V32.428C47.1267 31.9662 47.1489 31.4863 47.0777 31.0159C47.0064 30.5455 46.8432 30.0937 46.5972 29.6865C46.3513 29.2792 46.0274 28.9244 45.6443 28.6423C45.2611 28.3603 44.8261 28.1566 44.3641 28.0428L34.0681 25.4935L22.4671 10.162L17.4631 9.65576L24.0579 24.481L14.0476 23.4708L8.8456 14.8555L5.7406 15.553L8.5306 27.973L42.7554 35.1055ZM7.11085 41.1895H47.6109V45.6895H7.11085V41.1895Z" fill="#9700B4"/>
<path d="M42.7554 35.1055C43.6732 35.2972 44.6296 35.1256 45.4235 34.6267C46.2175 34.1278 46.787 33.3404 47.0124 32.4303V32.428C47.1267 31.9662 47.1489 31.4863 47.0777 31.0159C47.0064 30.5455 46.8432 30.0937 46.5972 29.6865C46.3513 29.2792 46.0274 28.9244 45.6443 28.6423C45.2611 28.3603 44.8261 28.1566 44.3641 28.0428L34.0681 25.4935L22.4671 10.162L17.4631 9.65576L24.0579 24.481L14.0476 23.4708L8.8456 14.8555L5.7406 15.553L8.5306 27.973L42.7554 35.1055ZM7.11085 41.1895H47.6109V45.6895H7.11085V41.1895Z" fill="#6C63FF"/>
</svg>
