<svg width="285" height="373" viewBox="0 0 285 373" fill="none" xmlns="http://www.w3.org/2000/svg">
<path fill-rule="evenodd" clip-rule="evenodd" d="M231.168 151.562C235.671 142.2 235.745 131.725 235.183 121.552C234.089 101.749 234.254 90.2721 244.223 71.8582C250.087 61.0288 256.392 49.6365 255.284 36.8882C254.478 27.6053 249.342 15.738 239.525 12.9031C223.44 9.61846 209.006 19.8235 199.636 32.2041C188.022 47.549 186.672 62.3114 194.62 79.1158C199.099 88.583 200.322 96.7991 198.048 107.096C196.231 115.331 191.875 123.746 191.316 132.204C190.481 144.848 194.821 154.767 204.937 161.769C210.661 138.55 215.098 113.889 215.131 89.973C215.217 87.6438 213.241 76.6263 216.607 75.5947C220.315 74.4597 218.605 89.8691 218.608 89.7696C218.445 96.8877 217.797 104.019 217.055 111.138C217.044 111.135 217.032 111.129 217.019 111.125C216.269 118.44 215.434 125.796 214.487 133.152C214.028 136.21 213.513 139.262 212.901 142.313C212.003 146.791 207.279 157.514 208.504 161.888C208.766 162.824 209.135 163.55 209.582 164.118C208.623 169.069 207.589 173.999 206.427 178.882C203.393 191.634 199.262 204.253 192.387 215.503C190.38 218.787 180.473 228.88 180.54 232.633C180.661 239.497 186.116 231.468 187.862 229.136C202.315 209.817 209.735 188.893 214.093 165.542C220.319 164.424 229.343 155.355 231.168 151.562Z" fill="#F2F2F2"/>
<path fill-rule="evenodd" clip-rule="evenodd" d="M37.3388 151.561C42.31 145.703 54.2602 144.71 61.5689 145.102C70.6127 145.587 79.9018 147.788 88.5059 150.45C102.68 154.835 116.452 162.837 128.935 170.581C130.439 171.515 148.972 182.66 147.332 184.616C145.707 186.554 127.513 173.315 123.458 171.033C114.806 166.162 106.87 160.402 97.3326 157.186C87.4571 153.855 77.013 152.536 66.6283 152.627C65.2955 152.639 60.9481 151.71 60.8543 153.681C60.7625 155.61 67.9558 154.604 69.2245 154.615C74.4634 154.663 79.7348 155.157 84.8995 156.064C94.5761 157.765 103.673 161.192 111.961 166.448C109.649 171.825 104.105 174.304 98.2897 172.958C93.2636 171.795 88.364 168.926 83.4425 168.097C80.053 167.526 76.6591 167.865 73.3723 168.82C64.7024 171.34 59.7021 176.502 50.1697 172.911C42.6969 170.096 30.1994 159.984 37.3388 151.561Z" fill="#F2F2F2"/>
<path fill-rule="evenodd" clip-rule="evenodd" d="M118.752 69.0511C107.714 68.2461 95.3875 77.0556 90.0632 86.2231C85.771 93.6146 86.494 103.321 89.1452 111.173C90.9205 116.431 94.7951 123.926 101.257 123.999C109.341 124.091 109.73 114.206 109.887 108.428C110.094 100.746 111.076 94.0539 117.195 88.8175C117.95 88.1713 118.743 87.5663 119.536 86.9613C120.239 86.4242 120.943 85.8872 121.62 85.3215C121.728 85.2312 121.837 85.1407 121.946 85.05C124.11 83.2509 126.382 81.3614 126.659 78.3959C127.06 74.0985 124.608 73.3251 120.864 74.1235C120.743 74.1492 120.415 74.2723 119.969 74.4396C118.057 75.1565 113.977 76.6864 114.749 74.8575C115.039 74.1685 116.101 73.6224 117.44 73.2132C120.907 72.8403 125.042 72.4077 126.231 72.6662C139.058 75.4501 144.052 93.0277 145.378 104.196C145.529 105.46 145.649 106.729 145.753 108H148.105C147.94 105.015 147.725 102.036 147.221 99.0844C145.331 88.0222 139.419 71.7748 126.455 69.9793C125.977 69.9124 124.217 69.9011 122.086 70.0247C121.076 69.4664 119.945 69.1288 118.752 69.0511Z" fill="#F2F2F2"/>
<path d="M130.044 229.433L125.786 237.687C125.209 238.806 124.37 239.596 123.421 239.917C122.471 240.237 121.472 240.067 120.603 239.437C119.963 238.972 119.42 238.278 119.027 237.422C118.635 236.567 118.407 235.58 118.367 234.56C118.327 233.54 118.475 232.524 118.798 231.611C119.12 230.698 119.605 229.921 120.204 229.358L125.635 224.256L141.164 202.184L142.889 194.282H154.584L148.449 213.084L130.044 229.433Z" fill="#FFB8B8"/>
<path d="M2.03928 228.955C1.49862 228.956 0.9803 229.262 0.597999 229.805C0.215697 230.348 0.000638706 231.085 0 231.854V369.246C0.000638706 370.014 0.215697 370.751 0.597999 371.295C0.9803 371.838 1.49862 372.144 2.03928 372.145H132.554C133.094 372.144 133.613 371.838 133.995 371.295C134.377 370.751 134.592 370.014 134.593 369.246V231.854C134.592 231.085 134.377 230.348 133.995 229.805C133.613 229.262 133.094 228.956 132.554 228.955H2.03928Z" fill="#E6E6E6"/>
<path d="M5.6687 364.303H128.924V236.796H5.6687V364.303Z" fill="white"/>
<path d="M111.549 273.303H37.319C36.6159 273.303 35.9416 273.7 35.4445 274.407C34.9473 275.114 34.668 276.072 34.668 277.071C34.668 278.071 34.9473 279.029 35.4445 279.736C35.9416 280.443 36.6159 280.84 37.319 280.84H111.549C112.252 280.84 112.926 280.443 113.424 279.736C113.921 279.029 114.2 278.071 114.2 277.071C114.2 276.072 113.921 275.114 113.424 274.407C112.926 273.7 112.252 273.303 111.549 273.303Z" fill="#E6E6E6"/>
<path d="M37.319 296.492C36.6159 296.492 35.9416 296.889 35.4445 297.595C34.9473 298.302 34.668 299.26 34.668 300.26C34.668 301.259 34.9473 302.218 35.4445 302.924C35.9416 303.631 36.6159 304.028 37.319 304.028H111.549C112.252 304.028 112.926 303.631 113.424 302.924C113.921 302.218 114.2 301.259 114.2 300.26C114.2 299.26 113.921 298.302 113.424 297.595C112.926 296.889 112.252 296.492 111.549 296.492H37.319Z" fill="#E6E6E6"/>
<path d="M37.3188 319.68C36.6163 319.682 35.9428 320.079 35.4464 320.786C34.95 321.492 34.6711 322.45 34.6711 323.449C34.6711 324.447 34.95 325.405 35.4464 326.111C35.9428 326.818 36.6163 327.215 37.3188 327.217H111.549C112.251 327.215 112.925 326.818 113.421 326.111C113.918 325.405 114.196 324.447 114.196 323.449C114.196 322.45 113.918 321.492 113.421 320.786C112.925 320.079 112.251 319.682 111.549 319.68H37.3188Z" fill="#E6E6E6"/>
<path d="M23.2475 281.999C25.0495 281.999 26.5103 279.922 26.5103 277.361C26.5103 274.8 25.0495 272.723 23.2475 272.723C21.4454 272.723 19.9846 274.8 19.9846 277.361C19.9846 279.922 21.4454 281.999 23.2475 281.999Z" fill="#6C63FF"/>
<path d="M23.2475 305.188C25.0495 305.188 26.5103 303.111 26.5103 300.55C26.5103 297.988 25.0495 295.912 23.2475 295.912C21.4454 295.912 19.9846 297.988 19.9846 300.55C19.9846 303.111 21.4454 305.188 23.2475 305.188Z" fill="#E6E6E6"/>
<path d="M23.2475 328.376C25.0495 328.376 26.5103 326.3 26.5103 323.738C26.5103 321.177 25.0495 319.101 23.2475 319.101C21.4454 319.101 19.9846 321.177 19.9846 323.738C19.9846 326.3 21.4454 328.376 23.2475 328.376Z" fill="#E6E6E6"/>
<path d="M81.9793 277.071C81.9793 278.071 81.7 279.029 81.2028 279.736C80.7056 280.443 80.0313 280.84 79.3282 280.84H37.4144C36.7596 280.853 36.1233 280.53 35.6228 279.93C35.1223 279.329 34.7913 278.492 34.6908 277.572C34.6414 277.04 34.6724 276.499 34.7818 275.985C34.8912 275.471 35.0764 274.996 35.3251 274.592C35.5739 274.188 35.8804 273.864 36.2242 273.642C36.568 273.42 36.9412 273.304 37.3189 273.303H79.3282C79.6764 273.303 80.0211 273.401 80.3427 273.59C80.6644 273.779 80.9566 274.057 81.2028 274.407C81.449 274.757 81.6443 275.172 81.7775 275.629C81.9107 276.087 81.9793 276.577 81.9793 277.071Z" fill="#6C63FF"/>
<path d="M185.641 349.33L180.273 352.873L172.116 330.842C167.08 319.877 163.793 306.737 161.485 292.379L169.921 293.197C174.943 303.385 178.664 313.599 179.863 323.866L185.641 349.33Z" fill="#FFB8B8"/>
<path d="M171.646 295.922H160.91V269.49L169.537 267.31L171.646 295.922Z" fill="#2F2E41"/>
<path d="M157.85 196.213C152.619 194.796 147.268 194.509 141.977 195.363L145.079 173.368C145.377 171.26 146.131 169.337 147.237 167.87C148.342 166.402 149.744 165.463 151.244 165.185C152.332 164.984 153.437 165.136 154.478 165.631C155.518 166.126 156.466 166.95 157.249 168.042C158.033 169.134 158.632 170.464 159 171.933C159.369 173.402 159.498 174.97 159.378 176.52L157.85 196.213Z" fill="#6C63FF"/>
<path d="M150.27 151.091C155.246 151.091 159.28 145.357 159.28 138.284C159.28 131.211 155.246 125.477 150.27 125.477C145.294 125.477 141.26 131.211 141.26 138.284C141.26 145.357 145.294 151.091 150.27 151.091Z" fill="#FFB8B8"/>
<path d="M164.169 153.135L152.283 165.125L149.12 143.734L158.034 138.693C158.396 144.301 160.527 149.074 164.169 153.135Z" fill="#FFB8B8"/>
<path d="M159.28 136.922C158.614 134.97 157.779 136.324 157.038 138.705L155.975 132.661L154.699 132.056L153.849 127.221C149.948 125.897 146.817 128.667 142.793 131.744L141.259 136.922C140.647 135.144 140.325 133.193 140.317 131.213C140.31 129.234 140.617 127.278 141.216 125.491C141.815 123.703 142.69 122.132 143.776 120.893C144.862 119.654 146.131 118.78 147.488 118.336C148.156 118.123 148.838 118.01 149.522 118.001C150.824 117.981 152.116 118.337 153.318 119.045C154.521 119.753 155.611 120.8 156.522 122.122C157.433 123.444 158.147 125.015 158.62 126.739C159.093 128.463 159.316 130.306 159.275 132.155L159.28 136.922Z" fill="#2F2E41"/>
<path d="M187.198 359.78L168.856 368.283C168.234 368.472 167.585 368.353 167.017 367.947C166.449 367.54 165.996 366.87 165.733 366.047C165.462 365.197 165.41 364.238 165.587 363.34C165.764 362.441 166.158 361.66 166.7 361.133C170.317 357.613 173.2 353.858 174.522 349.603C175.744 342.547 177.125 342.531 178.626 347.795C182.771 351.28 182.101 348.489 184.683 344.153L188.662 354.86C188.83 355.312 188.925 355.812 188.941 356.323C188.956 356.833 188.892 357.343 188.751 357.814C188.611 358.285 188.399 358.705 188.13 359.045C187.862 359.385 187.543 359.636 187.198 359.78Z" fill="#2F2E41"/>
<path d="M143.848 365.952L137.713 362.138L139.912 339.798L144.231 295.922L155.926 298.102C155.674 313.338 153.011 328.299 148.134 341.872L143.848 365.952Z" fill="#FFB8B8"/>
<path d="M163.786 302.734L143.464 297.012L148.832 256.955L147.874 246.055H174.522C173.55 260.167 168.913 281.001 163.786 302.734Z" fill="#2F2E41"/>
<path d="M175.48 249.87C165.644 246.332 155.968 245.831 146.532 249.87C144.767 224.017 144.281 199.365 145.825 176.617C146.193 171.108 148.066 166.024 151.041 162.456L162.252 149.048L170.576 154.964C171.651 155.728 172.559 156.894 173.201 158.338C173.843 159.781 174.196 161.447 174.22 163.154C176.038 197.547 177.431 230.275 175.48 249.87Z" fill="#6C63FF"/>
<path d="M185.258 245.51L186.933 253.848C187.108 254.715 187.151 255.625 187.059 256.518C186.967 257.411 186.743 258.266 186.402 259.026C186.061 259.787 185.61 260.436 185.079 260.93C184.548 261.424 183.949 261.752 183.322 261.893C182.633 262.047 181.929 261.972 181.264 261.671C180.6 261.371 179.994 260.855 179.494 260.163C178.995 259.472 178.616 258.624 178.387 257.688C178.158 256.751 178.087 255.752 178.177 254.77L178.931 246.6L174.905 205.181L169.537 188.832L180.273 182.02L184.682 202.457L185.258 245.51Z" fill="#FFB8B8"/>
<path d="M141.892 372.884L123.104 366.648C122.504 366.352 121.992 365.772 121.655 365.006C121.317 364.24 121.174 363.333 121.249 362.436C121.327 361.509 121.632 360.651 122.111 360.013C122.59 359.374 123.212 358.996 123.867 358.945C128.244 358.599 132.079 357.51 134.761 354.844C138.378 349.709 139.565 350.713 138.93 356.321C141.204 362.354 141.649 359.473 145.438 357.666L144.938 369.755C144.917 370.265 144.816 370.762 144.643 371.211C144.47 371.659 144.229 372.047 143.938 372.347C143.646 372.646 143.311 372.85 142.957 372.943C142.604 373.036 142.24 373.015 141.892 372.884Z" fill="#2F2E41"/>
<path d="M181.998 183.927C177.459 184.459 172.507 188.197 167.428 192.919L163.533 171.181C163.159 169.097 163.254 166.899 163.804 164.896C164.355 162.893 165.332 161.186 166.6 160.013C167.52 159.162 168.563 158.62 169.652 158.426C170.741 158.233 171.846 158.394 172.885 158.896C173.923 159.399 174.868 160.23 175.647 161.328C176.427 162.426 177.02 163.76 177.383 165.232L181.998 183.927Z" fill="#6C63FF"/>
</svg>
